SplineFontDB: 3.0
FontName: m2
FullName: m2
FamilyName: m2
Weight: Black
Copyright: Created by Khaled Hosny with Sorts Mill Tools 2.1.0_alpha1 <http://bitbucket.org/sortsmill/sortsmill-tools>
UComments: "2015-10-10: Created." 
Version: 001.000
StrokeWidth: 172
ItalicAngle: 0
UnderlinePosition: -100
UnderlineWidth: 50
Ascent: 800
Descent: 200
LayerCount: 2
Layer: 0 0 "Back"  1
Layer: 1 0 "Fore"  0
XUID: [1021 670 513581992 4353041]
FSType: 0
OS2_WeightWidthSlopeOnly: 0
OS2_UseTypoMetrics: 1
CreationTime: 1444496159
ModificationTime: 1444932819
PfmFamily: 17
TTFWeight: 900
TTFWidth: 5
LineGap: 90
VLineGap: 0
OS2TypoAscent: 0
OS2TypoAOffset: 1
OS2TypoDescent: 0
OS2TypoDOffset: 1
OS2TypoLinegap: 90
OS2WinAscent: 0
OS2WinAOffset: 1
OS2WinDescent: 0
OS2WinDOffset: 1
HheadAscent: 0
HheadAOffset: 1
HheadDescent: 0
HheadDOffset: 1
OS2Vendor: 'BLQ '
MarkAttachClasses: 1
DEI: 91125
LangName: 1033 
Encoding: UnicodeBmp
Compacted: 1
UnicodeInterp: none
NameList: AGL For New Fonts
DisplaySize: -48
AntiAlias: 1
FitToEm: 0
WinInfo: 0 9 8
BeginPrivate: 0
EndPrivate
BeginChars: 65564 64

StartChar: uni0627
Encoding: 1575 1575 0
Width: 1000
VWidth: 34
Flags: H
LayerCount: 2
Back
SplineSet
526.221679688 693.751953125 m 1
 526.483398438 142.983398438 l 2
 526.483398438 139.452148438 531.424804688 86.8193359375 473.412109375 86.8193359375 c 2
EndSplineSet
Fore
SplineSet
440 694 m 1
 612 694 l 1
 612 193 l 2
 612 95.888671875 565.364257812 1 440 1 c 1
 440 694 l 1
EndSplineSet
EndChar

StartChar: uni062D
Encoding: 1581 1581 1
Width: 1000
VWidth: 34
Flags: HW
LayerCount: 2
Back
SplineSet
503.6328125 -60.9296875 m 1
 503.6328125 -60.9296875 l 1
584.141601562 365.440429688 m 1
 584.141601562 365.440429688 l 1
642.833007812 -204.53515625 m 1
 402.47265625 -204.422851562 l 2
 353.530273438 -205.265625 317.764648438 -169.99609375 317.801757812 -124.372070312 c 2
 317.658203125 -9.044921875 l 2
 317.608398438 36.7509765625 358.1640625 86.57421875 409.5078125 86.521484375 c 2
 655.309570312 86.521484375 l 2
 673.783203125 86.01953125 682.67578125 108.005859375 682.1953125 117.049804688 c 1
 640.741210938 117.208007812 605.44921875 149.211914062 575.213867188 182.44140625 c 0
 536.340820312 225.198242188 491.860351562 301.147460938 380.987304688 343.603515625 c 9
EndSplineSet
Fore
SplineSet
642 -119 m 1
 643 -291 l 1
 403 -291 l 2
 309 -291 232 -217 232 -124 c 2
 232 -9 l 2
 232 80 301 173 410 173 c 2
 504 173 l 1
 498 180 492 187 486 194 c 0
 450 238 421 278 351 304 c 1
 411 464 l 1
 548 412 612 310 639 280 c 0
 683 232 730 243 768 243 c 1
 768 157 l 0
 768 157 784 1 635 1 c 2
 384 1 l 1
 404 21 l 1
 404 -139 l 1
 384 -119 l 1
 642 -119 l 1
EndSplineSet
EndChar

StartChar: uni062F
Encoding: 1583 1583 2
Width: 1000
VWidth: 34
Flags: HW
LayerCount: 2
Back
SplineSet
472.291015625 363.643554688 m 17
 543.9453125 327.192382812 652.177734375 267.116210938 658.130859375 137.891601562 c 4
 658.603515625 114.516601562 643.462890625 86.4052734375 605.6640625 86.4052734375 c 2
 341.859375 86.4052734375 l 1
EndSplineSet
Fore
SplineSet
433.540039062 287.079101562 m 1
 510.459960938 440.920898438 l 1
 581.544921875 405.37890625 735.3828125 325.268554688 743.907226562 141.99609375 c 0
 747.622070312 62.123046875 685.802734375 0 606 0 c 2
 342 0 l 1
 342 172 l 1
 541.666992188 172 l 2
 564.248046875 172 557.3515625 189.393554688 550.243164062 199.512695312 c 0
 525.263671875 235.072265625 480.416992188 263.640625 433.540039062 287.079101562 c 1
EndSplineSet
EndChar

StartChar: uni0631
Encoding: 1585 1585 3
Width: 1000
VWidth: 34
Flags: HW
LayerCount: 2
Back
SplineSet
543.403320312 221.49609375 m 1
 543.403320312 32.9423828125 l 2
 543.403320312 -49.1875 484.76953125 -113.631835938 403.9453125 -113.631835938 c 2
 302.1953125 -113.631835938 l 1
697.8046875 86.84765625 m 1
 572.575195312 86.84765625 l 1
EndSplineSet
Fore
SplineSet
457 221 m 1
 629 221 l 1
 629 3 l 2
 629 -120.15234375 536.57421875 -230 404 -230 c 2
 302 -230 l 1
 302 -58 l 1
 404 -58 l 2
 433.42578125 -58 457 -37.84765625 457 3 c 2
 457 221 l 1
EndSplineSet
EndChar

StartChar: uni066E
Encoding: 1646 1646 4
Width: 1000
VWidth: 34
Flags: HW
LayerCount: 2
Back
SplineSet
-34.5185546875 655.15625 m 0,0,1
780.833007812 334.048828125 m 1,25,-1
 780.833007812 139.099609375 l 2,26,27
 780.833007812 113.186523438 753.752929688 86.9375 728.670898438 86.9375 c 2,28,-1
 337.190429688 86.9375 l 2,29,30
 273.879882812 86.9375 219.166992188 133.615234375 219.166992188 193.896484375 c 2,31,-1
 219.166992188 334.048828125 l 1
EndSplineSet
Fore
SplineSet
695 334 m 1
 867 334 l 1
 867 139 l 2
 867 61.8603216602 805.775069687 1 729 1 c 2
 337 1 l 2
 234.672851562 1 133 77.833984375 133 194 c 2
 133 334 l 1
 305 334 l 1
 305 194 l 2
 305 190.166015625 313.327148438 173 337 173 c 2
 715 173 l 1
 695 153 l 1
 695 334 l 1
EndSplineSet
EndChar

StartChar: uni0633
Encoding: 1587 1587 5
Width: 1000
VWidth: 34
Flags: HW
LayerCount: 2
Back
SplineSet
631.224609375 85.80859375 m 2
 661.975585938 85.36328125 684.341796875 108.323242188 684.341796875 137.565429688 c 2
 684.341796875 409.62890625 l 1
501.24609375 -62.8984375 m 2
 501.19921875 -92.1552734375 478.881835938 -114.84375 448.120117188 -114.655273438 c 2
 181.083007812 -114.16015625 l 2
 153.732421875 -114.4375 132.359375 -86.7177734375 132.359375 -58.083984375 c 2
 132.612304688 220.248046875 l 1
782.458984375 516.321289062 m 1
 782.458984375 516.321289062 l 1
590.173828125 516.7578125 m 1
 590.173828125 516.7578125 l 1
685.19921875 610.91015625 m 1
 685.19921875 610.91015625 l 1
867.620117188 409.772460938 m 1
 867.640625 137.701171875 l 2
 867.640625 108.458984375 845.276367188 85.9443359375 814.499023438 85.9443359375 c 2
 732.237304688 85.9443359375 l 1
EndSplineSet
Fore
SplineSet
415 412 m 5
 587 412 l 5
 587 -93 l 6
 587 -170 524 -231 448 -231 c 6
 181 -231 l 6
 102 -231 46 -163 46 -89 c 6
 46 219 l 5
 218 219 l 5
 218 -79 l 5
 198 -59 l 5
 435 -59 l 5
 415 -79 l 5
 415 412 l 5
862 410 m 1
 1034 410 l 1
 1034 138 l 2
 1034 61 970 0 894 0 c 2
 792 0 l 1
 792 172 l 1
 882 172 l 1
 862 152 l 1
 862 410 l 1
638 410 m 1
 810 410 l 1
 810 138 l 2
 810 62 747 0 671 0 c 2
 579 0 l 1
 579 172 l 1
 658 172 l 1
 638 152 l 1
 638 410 l 1
EndSplineSet
EndChar

StartChar: uni0635
Encoding: 1589 1589 6
Width: 1000
VWidth: 34
Flags: HW
LayerCount: 2
Back
SplineSet
506.719726562 172 m 1
 510.283203125 176.950195312 l 0
 592.919921875 291.75390625 718.782226562 505.592773438 914.611328125 433.000976562 c 1
 1007.77832031 393.870117188 1043.59472656 304.6484375 1045.96875 207.331054688 c 1
 1047.95605469 140.764648438 l 2
 1050.65428396 62.4913583028 985.624326587 0 909 0 c 2
 477 0 l 1
 477 172 l 1
 493.277777778 172 l 1
773.105263158 172 m 1
 874.946289062 172 l 1
 874.03125 202.668945312 l 1
 872.4453125 267.698242188 859.6953125 269.040039062 851.416992188 272.950195312 c 1
 836.453125 277.790039062 797.166992188 267.908203125 720.897460938 172 c 1
371 311 m 1
 543 311 l 1
 543 -95 l 2
 543 -171.434732403 478.677600038 -231 404 -231 c 2
 137 -231 l 2
 58.3276803207 -231 2 -163.26901546 2 -89 c 2
 2 232 l 1
 174 232 l 1
 174 -59 l 1
 174 -59 l 1
 371 -59 l 1
 371 -59 l 1
 371 311 l 1
513.178710938 103.108398438 m 0
 617.337890625 246.692382812 717.419921875 396.061523438 833.349609375 353.162109375 c 1
 882.998046875 332.56640625 907.951171875 287.108398438 909.5546875 205.109375 c 1
 912.368164062 137.918945312 l 2
 913.586914062 108.700195312 890.00390625 86.1630859375 859.227539062 86.1630859375 c 2
 457.365234375 86.1630859375 l 1
457.342773438 270.90234375 m 1
 457.342773438 -92.58203125 l 2
 457.342773438 -121.838867188 434.971679688 -144.526367188 404.216796875 -144.338867188 c 2
 137.171875 -142.735351562 l 2
 108.7109375 -142.735351562 88.4482421875 -116.041992188 88.4482421875 -86.65234375 c 2
 87.5859375 191.6875 l 1
548.530273438 420.97265625 m 1
 548.530273438 420.97265625 548.540039062 420.97265625 548.530273438 420.97265625 c 1
EndSplineSet
Fore
SplineSet
371 311 m 1
 543 311 l 1
 543 -93 l 2
 543 -170 480 -231 404 -231 c 2
 137 -231 l 2
 58 -231 2 -163 2 -89 c 2
 2 219 l 1
 174 219 l 1
 174 -79 l 1
 154 -59 l 1
 391 -59 l 1
 371 -79 l 1
 371 311 l 1
506.719726562 172 m 17
 590.113633796 287.846455403 716.805782618 506.325420507 914.611328125 433.000976562 c 0
 1007.77832031 393.870117188 1043.59472656 304.6484375 1045.96875 207.331054688 c 0
 1047.95605469 140.764648438 l 2
 1050.65428396 62.4913583028 985.624326587 0 909 0 c 2
 477 0 l 1
 477 172 l 1
 895 172 l 1
 875 152 l 1
 875.03125 202.668945312 l 0
 873.4453125 267.698242188 859.6953125 269.040039062 851.416992188 272.950195312 c 0
 808.716705414 286.760977878 715 174 641 62 c 9
 506.719726562 172 l 17
EndSplineSet
EndChar

StartChar: uni0637
Encoding: 1591 1591 7
Width: 1000
VWidth: 34
Flags: HW
LayerCount: 2
Back
SplineSet
360.071289062 103.6875 m 0
 464.223632812 247.263671875 564.313476562 396.633789062 680.234375 353.734375 c 1
 729.891601562 333.137695312 754.836914062 287.6796875 756.440429688 205.680664062 c 1
 759.25390625 138.491210938 l 2
 760.473632812 109.271484375 736.897460938 86.734375 706.12109375 86.734375 c 2
 240.701171875 86.734375 l 1
373.306640625 694.705078125 m 1
 373.306640625 121.833007812 l 1
EndSplineSet
Fore
SplineSet
373.719726562 172 m 17
 457.11328125 287.846679688 583.805664062 506.325195312 781.611328125 433.000976562 c 0
 874.778320312 393.870117188 910.594726562 304.6484375 912.96875 207.331054688 c 0
 914.956054688 140.764648438 l 2
 917.654296875 62.4912109375 852.624023438 0 776 0 c 2
 241 0 l 1
 241 172 l 1
 762 172 l 1
 742 152 l 1
 742.03125 202.668945312 l 0
 740.4453125 267.698242188 726.6953125 269.040039062 718.416992188 272.950195312 c 0
 675.716796875 286.760742188 582 174 508 62 c 9
 373.719726562 172 l 17
287 695 m 1
 459 695 l 1
 459 122 l 1
 287 122 l 1
 287 695 l 1
EndSplineSet
EndChar

StartChar: uni0639
Encoding: 1593 1593 8
Width: 1000
VWidth: 34
Flags: HW
LayerCount: 2
Back
SplineSet
665 -100 m 1
 665 -272 l 1
 377 -272 l 0
 342.793945312 -272 310.107421875 -257.696289062 287.276367188 -234.611328125 c 0
 261.49609375 -208.543945312 249 -173.564453125 249 -139 c 0
 249 39.6533203125 l 1
 250.107421875 68.451171875 255.721679688 99.365234375 281.890625 129.421875 c 0
 306.37109375 157.538085938 344.239257812 172 379 172 c 0
 665 172 l 1
 665 0 l 1
 421 0 l 1
 421 -100 l 1
 665 -100 l 1
528.633789062 146.125976562 m 2
 497 117 497.735351562 117.677734375 497 117 c 2
 433.733398438 58.748046875 l 1
 349.439453125 150.297851562 288.370117188 266.102539062 357.572265625 363.161132812 c 0
 363.692382812 371.744140625 370.690429688 379.612304688 378.290039062 386.598632812 c 0
 439.823242188 443.170898438 524.470703125 440.259765625 600.708984375 418.950195312 c 1
 620.381835938 413.615234375 640.49609375 406.036132812 658.744140625 398.522460938 c 1
 593.255859375 239.477539062 l 1
 577.459960938 245.981445312 565.666992188 250.283203125 555.24609375 253.0625 c 1
 531.083984375 259.876953125 514.1796875 261.012695312 503.3671875 260.245117188 c 1
 508.69921875 243.5546875 525.112304688 213.43359375 560.266601562 175.251953125 c 1
 528.633789062 146.125976562 l 2
428.028320312 456.493164062 m 5
 428.028320312 456.493164062 l 5
665.436523438 -186.208007812 m 1
 376.9609375 -186.087890625 l 2
 353.31640625 -186.379882812 334.817382812 -166.16796875 334.66796875 -139.01171875 c 2
 334.529296875 38.0048828125 l 1
 335.72265625 64.39453125 348.650390625 86.412109375 379.270507812 86.47265625 c 2
 665.470703125 86.787109375 l 1
626.236328125 288.87109375 m 0
 609.493164062 296.072265625 593.373046875 301.813476562 578.032226562 306.177734375 c 0
 421.990234375 350.409179688 345.706054688 250.967773438 496.974609375 87.337890625 c 0
EndSplineSet
Fore
SplineSet
665 -100 m 1
 665 -272 l 1
 377 -272 l 2
 303.912484295 -272 249 -209.253433064 249 -139 c 2
 249 39.6533203125 l 2
 249 112.083984375 305.169941047 172 379 172 c 2
 665 172 l 1
 665 0 l 1
 401 0 l 1
 421 20 l 1
 421 -120 l 1
 401 -100 l 1
 665 -100 l 1
433.733398438 54.748046875 m 1
 345.33984375 150.75 281.870117188 278.350585938 369.193359375 373.494140625 c 0
 427.149414062 436.641601562 519.47265625 437.65625 600.708984375 414.950195312 c 0
 620.381835938 409.615234375 640.49609375 402.036132812 658.744140625 394.522460938 c 1
 593.255859375 235.477539062 l 1
 577.459960938 241.981445312 565.666992188 246.283203125 555.24609375 249.0625 c 0
 531.083984375 255.876953125 514.1796875 257.012695312 503.3671875 256.245117188 c 1
 508.69921875 239.5546875 525.112304688 209.43359375 560.266601562 171.251953125 c 1
 433.733398438 54.748046875 l 1
EndSplineSet
EndChar

StartChar: uni0644
Encoding: 1604 1604 9
Width: 1000
VWidth: 34
Flags: HW
LayerCount: 2
Back
SplineSet
683.662109375 729.625976562 m 1
 683.662109375 -7.7490234375 l 2
 683.662109375 -34.6650390625 664.141601562 -62.23828125 629.978515625 -62.23828125 c 2
 370.5078125 -62.7236328125 l 2
 337.94140625 -62.7236328125 316.479492188 -42.541015625 316.479492188 -10.404296875 c 2
 316.337890625 178.840820312 l 1
EndSplineSet
Fore
SplineSet
598 730 m 1
 770 730 l 1
 770 -8 l 2
 770 -84.3999318506 707.917737866 -148 630 -148 c 2
 371 -148 l 2
 294.653346485 -148 230 -86.3996986562 230 -9 c 2
 230 180 l 1
 402 180 l 1
 402 4 l 1
 382 24 l 1
 618 24 l 1
 598 4 l 1
 598 730 l 1
EndSplineSet
EndChar

StartChar: uni0643
Encoding: 1603 1603 10
Width: 1000
VWidth: 34
Flags: HW
LayerCount: 2
Back
SplineSet
549.452148438 513.748046875 m 5
 549.452148438 413.748046875 l 5
 509.470537969 413.748046875 l 5
 520.489137118 390.384202524 l 5
 520.962407216 389.236172272 l 4
 521.282279611 388.460244979 527.287952893 383.764621185 528.914501071 362.296284741 c 4
 532.661617469 312.839184943 476.342291422 302.490114597 466.897599201 302.723632812 c 5
 356.866210938 302.723632812 l 5
 356.866210938 402.723632812 l 5
 404.106870778 402.723632812 l 5
 393.482061169 425.252485585 l 5
 393.482061169 425.252485585 357.949956381 484.832432608 421.328274379 509.067959952 c 4
 432.878048702 513.484531427 441.382221867 513.726294059 449.59885386 513.748046875 c 5
 549.452148438 513.748046875 l 5
688.07421875 693.198242188 m 1
 688.07421875 141.220703125 l 2
 688.07421875 114.305664062 668.552734375 86.732421875 634.389648438 86.732421875 c 2
 311.92578125 86.732421875 l 1
549.452148438 463.748046875 m 1
 449.665039062 463.748046875 l 2
 429.376953125 463.694335938 434.84765625 455.075195312 438.853515625 446.265625 c 2
 474.736328125 370.1796875 l 2
 478.62890625 360.737304688 484.815429688 352.295898438 467.515625 352.723632812 c 2
 356.866210938 352.723632812 l 1
EndSplineSet
Fore
SplineSet
329.87890625 172.240234375 m 1
 474.120117188 -0.2392578125 l 1
 312.120117188 -0.2392578125 l 1
 167.87890625 172.240234375 l 1
 329.87890625 172.240234375 l 1
602 692 m 1
 774 692 l 1
 774 138 l 2
 774 62 711 0 635 0 c 2
 312 0 l 1
 312 172 l 1
 622 172 l 1
 602 152 l 1
 602 692 l 1
549.452148438 513.748046875 m 1
 549.452148438 413.748046875 l 1
 509.470537969 413.748046875 l 1
 520.489137118 390.384202524 l 2
 524.048260718 381.750693721 538.5 357.5 521.5 331.095358058 c 0
 506.664606864 308.052814304 473.881179275 302.550965126 466.897599201 302.723632812 c 2
 356.866210938 302.723632812 l 1
 356.866210938 402.723632812 l 1
 404.106870778 402.723632812 l 1
 393.482061169 425.252485585 l 2
 393.482061169 425.252485585 369.35928862 465.701356237 396.318636986 493.5 c 0
 406.344845375 503.838343179 425.497180166 513.748046875 449.59885386 513.748046875 c 2
 549.452148438 513.748046875 l 1
EndSplineSet
EndChar

StartChar: uni0645
Encoding: 1605 1605 11
Width: 1000
VWidth: 34
Flags: HW
LayerCount: 2
Back
SplineSet
445.06640625 12.5419921875 m 1
 425.803710938 4.4775390625 405.20703125 1 385 1 c 0
 291 1 l 1
 291 173 l 1
 357 173 l 1
 357 270.689453125 l 1
 356.854492188 326.840820312 377.1328125 372.783203125 411.70703125 406.225585938 c 0
 490.614257812 482.548828125 620.689453125 476.416015625 699.258789062 394.328125 c 1
 758.869140625 331.49609375 795.569335938 266.73828125 795.888671875 196.674804688 c 0
 796.549804688 51.509765625 652.66796875 1 555 1 c 0
 490 1 l 1
 490 93 l 0
 490 94 445.06640625 12.5419921875 445.06640625 12.5419921875 c 1
529 173 m 1
 555 173 l 0
 622.700195312 173 623.889648438 195.890625 623.889648438 195.890625 c 0
 623.866210938 201.139648438 618.399414062 229.653320312 574.741210938 275.671875 c 1
 559.282226562 291.823242188 535.2578125 286.435546875 531.288085938 282.595703125 c 0
 530.501953125 281.834960938 528.903320312 282.4765625 529 272.413085938 c 1
 529 173 l 1
290.69921875 86.8154296875 m 1
 385.392578125 86.8154296875 l 1
 426.880859375 94.54296875 442.112304688 114.952148438 443.01953125 141.125 c 2
 443.01953125 272.025390625 l 2
 442.360351562 375.580078125 570.024414062 405.125976562 636.584960938 334.690429688 c 0
 784.111328125 178.573242188 681.637695312 86.6962890625 555.124023438 86.6962890625 c 2
 489.834960938 86.9072265625 l 1
EndSplineSet
Fore
SplineSet
555.124023438 172.696289062 m 0
 622.218834828 172.696289062 623.30077442 195.419621863 623.30077442 195.419621863 c 0
 623.282478275 200.806517758 617.943760168 229.203518766 574.078292477 275.623379668 c 0
 564.117801377 286.16374736 550.601248273 287.560348739 541.333333333 286.105407338 c 0
 528.357705413 284.068403503 529.01953125 269.51395782 529.01953125 260.298828125 c 2
 529.01953125 169.318930288 l 2
 529.01953125 84.099609375 501.380511781 0.8154296875 385.392578125 0.8154296875 c 2
 290.69921875 0.8154296875 l 1
 290.69921875 172.815429688 l 1
 377.01953125 172.815429688 l 1
 357 153 l 1
 357.01953125 271.751675933 l 2
 357.028320312 324.583984375 378.074055792 374.034958941 413.140921016 407.285653301 c 0
 491.956745831 482.019476381 621.230730485 476.151258793 699.091629398 393.757479707 c 0
 758.356743629 331.041213272 795.062049666 265.9989461 795.299782362 196.003802218 c 0
 795.791390762 51.2605629046 652.603850796 0.6962890625 555.124023438 0.6962890625 c 0
 489.124023438 0.6962890625 l 1
 489.124023438 172.696289062 l 1
 555.124023438 172.696289062 l 0
EndSplineSet
EndChar

StartChar: uni0647
Encoding: 1607 1607 12
Width: 1000
VWidth: 34
Flags: HW
LayerCount: 2
Back
SplineSet
459.875 173 m 5
 460 173 l 1
 553 173 l 1
 553 398 l 1
 725 398 l 1
 725 139 l 2
 725 62.5543827768 663.218954252 1 587 1 c 2
 447 1 l 0
 401.913085938 1 359.825195312 17.4892578125 328.66796875 45.708984375 c 0
 308.069335938 64.3671875 292.127929688 88.126953125 283.1328125 115.19921875 c 0
 265.165039062 169.28125 278.559570312 232.024414062 320.465820312 277.9609375 c 0
 321.861328125 279.490234375 323.91015625 281.54296875 325.030273438 282.598632812 c 0
 396.584960938 350.004882812 433.063476562 371.530273438 467.420898438 443.671875 c 0
 470.161132812 449.427734375 472.893554688 455.544921875 475.615234375 462.077148438 c 1
 557.76953125 427.845703125 l 0
 558.692382812 427.461914062 636 398 636 398 c 1
 589.7155124 284.672398213 533.084857866 239.366616741 459.875 173 c 5
638.78125 397.875976562 m 1
 638.78125 139.115234375 l 2
 638.78125 111.28515625 615.405273438 86.8740234375 586.977539062 86.8740234375 c 2
 446.658203125 86.8740234375 l 2
 374.659179688 86.8740234375 332.454101562 162.799804688 384.103515625 219.91015625 c 1
 452.823242188 284.702148438 509.328125 320.524414062 554.538085938 428.806640625 c 0
EndSplineSet
Fore
SplineSet
440 155 m 1
 440 165 l 1
 440 173 l 1
 573 173 l 1
 553 153 l 1
 553 398 l 1
 725 398 l 1
 725 139 l 2
 725 63 663 1 587 1 c 2
 447 1 l 2
 402 1 360 18 329 46 c 0
 268 101 250 210 325 283 c 0
 401 357 440 377 476 462 c 1
 636 398 l 1
 590 285 545.334960938 251 440 155 c 1
EndSplineSet
EndChar

StartChar: uni0648
Encoding: 1608 1608 13
Width: 1000
VWidth: 34
Flags: HW
LayerCount: 2
Back
SplineSet
515 267 m 0
 515 268.92578125 514.905273438 270.466796875 514.771484375 271.727539062 c 1
 489.732421875 274.465820312 430.116210938 246.239257812 422.916992188 183.935546875 c 0
 423.79296875 180.331054688 430.6953125 172 441 172 c 0
 569.1328125 172 l 1
 568.921875 0 l 1
 441 0 l 0
 332.494140625 0 245.03515625 88.0947265625 251.219726562 195.28515625 c 0
 265.22265625 352.823242188 395.189453125 443.569335938 510.259765625 443.924804688 c 0
 608.073241672 444.226555944 687 368.191618186 687 267 c 2
 687 3 l 2
 687 -109.787109375 601.696289062 -229 463 -229 c 2
 270 -229 l 1
 270 -57 l 1
 463 -57 l 2
 489.470703125 -57 514.921875 -34.1865234375 514.930664062 0 c 2
 515 267 l 0
729.676757812 86.431640625 m 1
 441.39453125 86.431640625 l 2
 380.485351562 87.4951171875 334.228515625 137.455078125 337.3125 189.423828125 c 1
 352.953125 369.272460938 600.447265625 421.680664062 601.015625 267.346679688 c 2
 601.015625 33.265625 l 2
 601.015625 -40.7265625 545.721679688 -113.471679688 462.784179688 -113.471679688 c 2
 270.323242188 -113.471679688 l 1
EndSplineSet
Fore
SplineSet
515 267 m 2
 515 273.509750667 511.759995871 272.299696526 505.666666667 271.540881893 c 0
 479.455657766 268.276771843 435.667938672 243.253433633 424.73394474 194.666666667 c 0
 422.203261961 183.421215538 423.888422491 172 441 172 c 2
 569.1328125 172 l 1
 568.921875 0 l 1
 441 0 l 2
 332.494140625 0 245.03515625 88.0947265625 251.219726562 195.28515625 c 0
 265.22265625 352.823242188 395.189453125 443.569335938 510.259765625 443.924804688 c 0
 608.073241672 444.226555944 687 368.191618186 687 267 c 2
 687 3 l 2
 687 -109.787109375 601.696289062 -229 463 -229 c 2
 270 -229 l 1
 270 -57 l 1
 463 -57 l 2
 489.470703125 -57 514.921875 -34.1865234375 514.930664062 0 c 2
 515 267 l 2
EndSplineSet
EndChar

StartChar: uni0649
Encoding: 1609 1609 14
Width: 1000
VWidth: 34
Flags: HW
LayerCount: 2
Back
SplineSet
739 215 m 1
 739 43 l 1
 682.30078125 43 l 1
 741.538085938 -28.51171875 l 1
 760.185546875 -51.546875 768.5 -77.701171875 768.66015625 -104.424804688 c 0
 768.7421875 -118.139648438 766.532226562 -132.046875 761.828125 -145.53515625 c 0
 742.895507812 -199.8203125 687.545898438 -231 632 -231 c 0
 402 -231 l 0
 315.13671875 -231 175 -176.467773438 175 -20 c 0
 175 176 l 1
 347 176 l 1
 347 -20 l 0
 347 -45.5322265625 360.86328125 -59 402 -59 c 0
 543.446289062 -59 l 1
 497.716796875 -3.794921875 l 1
 465.799804688 34.8916015625 449.48046875 94.353515625 477.899414062 146.45703125 c 0
 485.909179688 161.141601562 496.670898438 173.654296875 508.755859375 183.541992188 c 0
 536.053710938 205.873046875 569.145507812 215 601 215 c 0
 739 215 l 1
739.353515625 86.8046875 m 1
 600.854492188 86.9072265625 l 2
 556.342773438 87.083984375 531.909179688 50.6259765625 564.016601562 9.0595703125 c 1
 674.627929688 -124.556640625 l 1
 693.836914062 -143.765625 682.213867188 -187.112304688 632.034179688 -187.112304688 c 2
 401.974609375 -187.112304688 l 2
 337.9140625 -187.112304688 260.646484375 -153.080078125 260.646484375 -61.6669921875 c 2
 260.646484375 134.263671875 l 1
EndSplineSet
Fore
SplineSet
739 215 m 1
 739 43 l 1
 661.5 43 l 1
 668.375 59.875 l 1
 738.538085938 -25.51171875 l 2
 813.232236915 -116.412630199 741.720799206 -231 632 -231 c 2
 402 -231 l 2
 315.13671875 -231 175 -176.467773438 175 -20 c 2
 175 206 l 1
 347 206 l 1
 347 -20 l 2
 347 -45.5322265625 360.86328125 -59 402 -59 c 2
 567 -59 l 1
 553 -71 l 1
 497.716796875 -3.794921875 l 2
 416.338110951 95.1331545764 485.935600592 215 601 215 c 2
 739 215 l 1
EndSplineSet
EndChar

StartChar: uni0661
Encoding: 1633 1633 15
Width: 1000
VWidth: 0
Flags: HW
LayerCount: 2
Back
SplineSet
500 693.485351562 m 1
 500 34.2412109375 l 1
EndSplineSet
Fore
SplineSet
414 659 m 1
 586 659 l 1
 586 0 l 1
 414 0 l 1
 414 659 l 1
EndSplineSet
EndChar

StartChar: uni0662
Encoding: 1634 1634 16
Width: 1000
VWidth: 0
Flags: HW
LayerCount: 2
Back
SplineSet
612.912109375 638.810546875 m 1
 438.859375 637.577148438 l 2
 409.587890625 637.374023438 387.087890625 615.212890625 387.087890625 584.451171875 c 2
 387.087890625 33.53515625 l 1
EndSplineSet
Fore
SplineSet
473 0 m 1
 301 0 l 1
 301 554 l 2
 301 630 364 692 440 692 c 2
 613 692 l 1
 613 520 l 1
 453 520 l 1
 473 540 l 1
 473 0 l 1
EndSplineSet
EndChar

StartChar: uni0663
Encoding: 1635 1635 17
Width: 1000
VWidth: 0
Flags: HW
LayerCount: 2
Back
SplineSet
683.720703125 693.637695312 m 1
 683.720703125 511.060546875 l 2
 683.720703125 481.818359375 661.372070312 459.311523438 630.594726562 459.303710938 c 2
 548.34765625 459.303710938 l 1
500.489257812 693.501953125 m 1
 500.489257812 510.91796875 l 2
 500.489257812 481.67578125 478.139648438 459.17578125 447.36328125 459.17578125 c 2
 365.040039062 459.162109375 l 1
316.279296875 693.833984375 m 1
 316.279296875 34.212890625 l 1
EndSplineSet
Fore
SplineSet
444 660 m 1
 616 660 l 1
 616 477 l 2
 616 401 553 339 477 339 c 2
 365 339 l 1
 365 511 l 1
 464 511 l 1
 444 491 l 1
 444 660 l 1
658 660 m 1
 830 660 l 1
 830 477 l 2
 830 401 767 339 691 339 c 2
 599 339 l 1
 599 511 l 1
 678 511 l 1
 658 491 l 1
 658 660 l 1
230 660 m 1
 402 660 l 1
 402 0 l 1
 230 0 l 1
 230 660 l 1
EndSplineSet
EndChar

StartChar: uni0664
Encoding: 1636 1636 18
Width: 1000
VWidth: 34
Flags: HW
LayerCount: 2
Back
SplineSet
494.89453125 711.16796875 m 1
 597.10546875 572.83203125 l 1
 485.603515625 490.448242188 l 1
 557.721679688 440.8671875 l 2
 596.1875 414.421875 606.771484375 360.026367188 579.642578125 320.953125 c 2
 476.665039062 172.633789062 l 1
 656.303710938 171.999023438 l 1
 655.696289062 0.0009765625 l 1
 372.84765625 0 l 2
 320.184570312 0 258.096679688 47.0302734375 258.163085938 109.5390625 c 0
 258.229492188 172.009765625 290.297851562 206.282226562 304.66796875 226.495117188 c 2
 389.083984375 348.079101562 l 1
 332.278320312 387.1328125 l 2
 296.201171875 411.985351562 243.37109375 485.258789062 290.309570312 551.341796875 c 0
 309.796875 578.77734375 326.642578125 587.032226562 338.227539062 595.4140625 c 2
 494.89453125 711.16796875 l 1
545.6796875 641.766601562 m 1
 389.086914062 526.010742188 l 1
 362.237304688 502.737304688 337.690429688 490.63671875 381.3359375 457.721679688 c 1
 509.259765625 369.650390625 l 1
 375.08984375 176.567382812 l 2
 354.7734375 148.236328125 317.661132812 86.73828125 372.547851562 86.9990234375 c 2
 656.146484375 86.396484375 l 1
EndSplineSet
Fore
SplineSet
495 711 m 1
 597 573 l 1
 526 520 l 2
 469 479 l 1
 473 499 l 1
 558 441 l 2
 596 415 607 360 580 321 c 2
 497 202 l 26
 462 152 l 1
 457 172 l 1
 656 172 l 1
 656 0 l 1
 373 0 l 2
 320 0 258 47 258 110 c 0
 258 172 291 206 305 226 c 2
 389 348 l 1
 332 387 l 2
 261.350141167 436.062401967 258.814453125 536.494140625 338 595 c 2
 495 711 l 1
EndSplineSet
EndChar

StartChar: uni0665
Encoding: 1637 1637 19
Width: 1000
VWidth: 34
Flags: HW
LayerCount: 2
Back
SplineSet
601.818359375 674.3984375 m 0
 711.912109375 606.581054688 770.090820312 437.006835938 771.232421875 290.591796875 c 0
 772.294921875 154.383789062 700.520507812 -10.6259765625 501.592773438 -11.998046875 c 0
 404.169921875 -12.669921875 323.897460938 29.5634765625 278.641601562 98.50390625 c 0
 161.129882812 277.515625 256.244140625 581.000976562 391.787109375 669.881835938 c 0
 455.091796875 711.529296875 536.374023438 714.009765625 601.818359375 674.3984375 c 0
512.106445312 527.64453125 m 0
 501.768554688 533.690429688 498.918945312 534.478515625 486.212890625 526.118164062 c 0
 439.662109375 495.59375 370.504882812 271.991210938 422.428710938 192.892578125 c 0
 434.776367188 174.083007812 450.67578125 159.655273438 500.407226562 159.998046875 c 0
 575.97265625 160.51953125 599.956054688 197.192382812 599.23828125 289.25 c 0
 598.409179688 395.56640625 535.611328125 512.515625 512.106445312 527.64453125 c 0
556.603515625 601.333984375 m 0
 682.04296875 524.165039062 790.403320312 75.8525390625 500.768554688 74.046875 c 0
 211.208007812 72.248046875 316.934570312 517.897460938 438.612304688 598.353515625 c 0
 476.538085938 623.44921875 519.053710938 624.419921875 556.603515625 601.333984375 c 0
EndSplineSet
Fore
SplineSet
601.818359375 674.3984375 m 0
 711.912109375 606.581054688 770.090820312 437.006835938 771.232421875 290.591796875 c 0
 772.294921875 154.383789062 700.520507812 -10.6259765625 501.592773438 -11.998046875 c 0
 328.831457964 -13.18949228 228.702614971 115.780902657 225.580423948 286.899993896 c 0
 222.744838081 442.311009176 297.480263506 608.041125327 391.787109375 669.881835938 c 0
 455.091796875 711.529296875 536.374023438 714.009765625 601.818359375 674.3984375 c 0
512.106445312 527.64453125 m 0
 501.768554688 533.690429688 498.918945312 534.478515625 486.212890625 526.118164062 c 0
 453.273236672 504.518878093 409.014365482 386.243922391 404.345347072 290.899993896 c 0
 400.492579017 212.224347378 414.355766617 159.404938138 500.407226562 159.998046875 c 0
 575.97265625 160.51953125 599.956054688 197.192382812 599.23828125 289.25 c 0
 598.409179688 395.56640625 535.611328125 512.515625 512.106445312 527.64453125 c 0
EndSplineSet
EndChar

StartChar: uni0666
Encoding: 1638 1638 20
Width: 1000
VWidth: 0
Flags: HW
LayerCount: 2
Back
SplineSet
340.020507812 638.7734375 m 1
 608.283203125 637.546875 l 2
 637.479492188 637.418945312 659.979492188 615.174804688 659.979492188 584.420898438 c 2
 659.979492188 33.498046875 l 1
EndSplineSet
Fore
SplineSet
574 0 m 1
 746 0 l 1
 746 553 l 2
 746 629 683 691 607 691 c 2
 340 691 l 1
 340 519 l 1
 594 519 l 1
 574 539 l 1
 574 0 l 1
EndSplineSet
EndChar

StartChar: uni0667
Encoding: 1639 1639 21
Width: 1000
VWidth: 34
Flags: HW
LayerCount: 2
Back
SplineSet
610.799804688 693.766601562 m 1
 777.200195312 650.233398438 l 1
 625.200195312 69.2333984375 l 0
 624.401367188 66.1806640625 623.01171875 62.0380859375 622.15234375 59.830078125 c 0
 612.731445312 35.6044921875 594.971679688 17.8525390625 577.61328125 7.5283203125 c 0
 558.181640625 -4.02734375 538.88671875 -8.0458984375 520.985351562 -8.466796875 c 0
 488.15234375 -9.23828125 442.638671875 2.7646484375 416.822265625 49.234375 c 0
 414.16796875 54.0126953125 411.387695312 60.740234375 410.094726562 64.779296875 c 0
 224.094726562 645.779296875 l 1
 387.905273438 698.220703125 l 1
 511.205078125 313.076171875 l 1
 610.799804688 693.766601562 l 1
694.293945312 671.767578125 m 1
 541.913085938 91.0615234375 l 1
 534.764648438 73.4755859375 502.2578125 72.572265625 492.249023438 90.8349609375 c 1
 305.706054688 671.767578125 l 1
EndSplineSet
Fore
SplineSet
610.799804688 693.766601562 m 1
 777.200195312 650.233398438 l 1
 625.200195312 69.2333984375 l 2
 613.155163838 23.2031192346 570.501621255 -7.6094156763 520.985351562 -8.466796875 c 0
 471.57415776 -9.32235866984 427.49675151 10.4176841987 410.094726562 64.779296875 c 2
 224.094726562 645.779296875 l 1
 387.905273438 698.220703125 l 1
 526 267 l 1
 499 267 l 1
 610.799804688 693.766601562 l 1
EndSplineSet
EndChar

StartChar: uni0668
Encoding: 1640 1640 22
Width: 1000
VWidth: 0
Flags: HW
LayerCount: 2
Back
SplineSet
305.717773438 40.8583984375 m 1
 458.150390625 621.557617188 l 1
 465.297851562 639.151367188 497.806640625 640.046875 507.814453125 621.783203125 c 1
 694.282226562 40.8583984375 l 1
EndSplineSet
Fore
Refer: 21 1639 N 1 0 0 -1 -33 677.727 2
EndChar

StartChar: uni0669
Encoding: 1641 1641 23
Width: 1000
VWidth: 0
Flags: HW
LayerCount: 2
Back
SplineSet
554 475 m 2
 554 490.920866256 550.534391442 497.380581752 547.64934827 501.547969208 c 0
 536.487928574 517.670417872 486.538887514 522.08138474 474.242622816 513.493517332 c 0
 471.614382124 511.657920658 467.811191107 509.374232914 465.688890864 508.23447908 c 0
 454.839665355 502.408043159 436.082666511 471.87395706 454.204527229 439.845199103 c 1
 470.302850499 417.98190732 467.064674604 421.893101349 554 422.315079839 c 1
 614 422.315429688 l 1
 614 250.313476562 l 1
 554 250.313356132 l 1
 494.07573988 249.963971018 383.823318826 239.279717932 311.291471519 344.047941821 c 0
 310.628430271 345.005668067 309.412985647 346.852463689 308.594207175 348.193866717 c 0
 236.067575908 467.01409241 285.548521674 602.978951033 379.939160999 657.341294729 c 1
 465.373183286 712.660820756 618.100623737 710.617197224 693.062120285 593.449974748 c 0
 714.548041274 559.866791372 726 518.71050939 726 475 c 0
 726 0 l 1
 554 0 l 1
 554 475 l 2
639.801757812 34.2734375 m 1
 640.02734375 517.705078125 l 1
 620.583007812 650.391601562 488.96484375 661.227539062 425.46875 617.651367188 c 1
 371.162109375 588.57421875 334.41796875 503.663085938 381.794921875 426.984375 c 1
 435.997070312 348.973632812 501.1328125 375.76953125 600.047851562 368.7109375 c 0
EndSplineSet
Fore
SplineSet
554 475 m 2
 554 490.920866256 550.534391442 497.380581752 547.64934827 501.547969208 c 0
 536.487928574 517.670417872 486.538887514 522.08138474 474.242622816 513.493517332 c 0
 459.96498932 503.521836795 431.522378983 479.933854866 454.204527229 439.845199103 c 0
 468.58246999 420.318373076 487.494140625 418.315429688 624 428.315429688 c 1
 624 256.313476562 l 1
 520.517578125 246.313476562 383.940429688 229.750595093 308.594207175 348.193866717 c 0
 233.876720022 465.648774619 285.548521674 602.978951033 379.939160999 657.341294729 c 0
 465.373183286 712.660820756 618.100623737 710.617197224 693.062120285 593.449974748 c 0
 714.548041274 559.866791372 726 518.71050939 726 475 c 2
 726 0 l 1
 554 0 l 1
 554 475 l 2
EndSplineSet
EndChar

StartChar: uni06BA
Encoding: 1722 1722 24
Width: 1000
VWidth: 34
Flags: HW
LayerCount: 2
Back
SplineSet
681.9375 221.759765625 m 1
 681.9375 -49.4443359375 l 2
 682.262695312 -75.30078125 659.373046875 -101.450195312 630.64453125 -101.450195312 c 2
 492.05078125 -101.450195312 l 2
 411.485351562 -101.450195312 318.059570312 -38.88671875 318.059570312 30.935546875 c 2
 318.059570312 221.169921875 l 1
EndSplineSet
Fore
SplineSet
596 222 m 1
 768 222 l 1
 768 -49 l 2
 768 -124.518716563 707.723826402 -187 631 -187 c 2
 492 -187 l 2
 364.327399182 -187 232 -114.292783676 232 31 c 2
 232 221 l 1
 404 221 l 1
 404 31.6376953125 l 2
 404 5.0625 430.565429688 -15 492 -15 c 2
 636 -15 l 1
 596 -45 l 1
 596 222 l 1
EndSplineSet
EndChar

StartChar: uni06A1
Encoding: 1697 1697 25
Width: 1000
VWidth: 34
Flags: HW
LayerCount: 2
Back
SplineSet
626 0.345703125 m 1
 554.311523438 -1.0068359375 444.56640625 0.0234375 380.395507812 106.520507812 c 1
 310.895507812 221.196289062 369 350.469726562 451.3359375 404.240234375 c 1
 541.405273438 461.784179688 692.708984375 457.412109375 765.862304688 341.569335938 c 0
 786.8671875 308.306640625 798 267.8203125 798 225 c 0
 798 -59 l 0
 798 -94.583984375 784.657226562 -128.653320312 759.965820312 -154.969726562 c 0
 734.962890625 -181.618164062 697.520507812 -199 657 -199 c 0
 165 -199 l 0
 110.616210938 -199 55.1650390625 -177.983398438 18.6279296875 -132.58203125 c 0
 -6.962890625 -100.783203125 -20 -60.2978515625 -20 -19 c 0
 -20 133 l 1
 152 133 l 1
 152 -19 l 0
 152 -22.4970703125 152.509765625 -24.1640625 152.6875 -24.6953125 c 1
 153.510742188 -25.1845703125 157.129882812 -27 165 -27 c 0
 626 -27 l 1
 626 0.345703125 l 1
626 172.377929688 m 1
 626 225 l 0
 626 238.96484375 623.108398438 245.361328125 620.627929688 249.416992188 c 0
 611.994140625 263.532226562 567.840820312 273.973632812 544.692382812 259.7734375 c 1
 527.638671875 247.90625 517.3828125 212.344726562 527.604492188 195.479492188 c 1
 541.771484375 171.967773438 542.962890625 170.756835938 626 172.377929688 c 1
66.0068359375 132.536132812 m 1
 66.0068359375 -18.6123046875 l 2
 66.0068359375 -76.30859375 108.076171875 -113.155273438 165.232421875 -113.155273438 c 2
 656.993164062 -113.079101562 l 2
 690.500976562 -112.733398438 711.819335938 -86.1923828125 711.68359375 -59.080078125 c 2
 711.90234375 225.303710938 l 2
 711.90234375 352.920898438 569.202148438 378.174804688 497.524414062 331.708984375 c 0
 448.087890625 299.663085938 413.65234375 216.939453125 453.68359375 151.01953125 c 0
 501.022460938 73.0703125 570.610351562 87.3173828125 671.922851562 86.9638671875 c 2
 933.993164062 86.0478515625 l 1
EndSplineSet
Fore
SplineSet
666 21.345703125 m 1
 566.311523438 15.9931640625 444.56640625 0.0234375 380.395507812 106.520507812 c 0
 310.895507812 221.196289062 369 350.469726562 451.3359375 404.240234375 c 0
 541.405273438 461.784179688 692.708984375 457.412109375 765.862304688 341.569335938 c 0
 786.8671875 308.306640625 798 267.8203125 798 225 c 0
 798 -59 l 2
 798 -136.159557238 734.90625 -199 657 -199 c 2
 165 -199 l 2
 67.689453125 -199 -20 -126.03515625 -20 -19 c 2
 -20 133 l 1
 152 133 l 1
 152 -47 l 1
 132 -27 l 1
 646 -27 l 1
 626 -47 l 1
 626 215 l 0
 626 247.245117188 610.959550464 260.616123306 592 267.042479906 c 0
 572.057247042 273.802093871 550.148509872 266.861378029 536.888941798 252.700927734 c 0
 519.562265756 234.197041824 518.583637648 210.363428167 527.604492188 195.479492188 c 0
 541.771484375 171.967773438 558.962890625 147.756835938 666 158.377929688 c 1
 666 21.345703125 l 1
EndSplineSet
EndChar

StartChar: uni06D2
Encoding: 1746 1746 26
Width: 1000
VWidth: 34
Flags: HW
LayerCount: 2
Back
SplineSet
896.846679688 -110.895507812 m 1
 271.095703125 -110.77734375 l 1
 55.3857421875 -103.637695312 67.7802734375 84.75 193.936523438 117.421875 c 0
 304.288085938 146.0078125 292.09765625 192.403320312 316.1328125 226.68359375 c 0
 388.958984375 330.565429688 500.569335938 287.665039062 554.267578125 254.004882812 c 0
EndSplineSet
Fore
SplineSet
599.822265625 326.776367188 m 1
 508.177734375 181.223632812 l 1
 460.490234375 211.25 417.370117188 221.184570312 386.60546875 177.897460938 c 0
 381.622070312 168.454101562 345.615234375 68.033203125 215.856445312 33.8232421875 c 0
 191.330078125 27.400390625 187.884765625 8.455078125 189.577148438 2.0654296875 c 0
 189.577148438 2.0654296875 193.206054688 -25 271 -25 c 0
 897 -25 l 1
 897 -197 l 1
 271 -197 l 0
 147.28125 -197 49.0751953125 -139.2578125 23.30859375 -41.96875 c 0
 -4.458984375 62.8779296875 62.212890625 171.384765625 172.143554688 200.176757812 c 0
 247.981177968 220.169668032 205.872099526 271.4185878 311.006072998 342.104133943 c 0
 419.824146644 415.266639952 550.172274935 358.036845746 599.822265625 326.776367188 c 1
EndSplineSet
EndChar

StartChar: space
Encoding: 32 32 27
Width: 1000
VWidth: 34
Flags: HW
LayerCount: 2
Back
SplineSet
21441.0507812 655.15625 m 0
 21345.5634766 622.452148438 21164.8535156 552.624023438 21080.796875 465.55078125 c 1
 21397.4863281 139.393554688 l 2
 21419.3095703 117.5703125 21401.1894531 86.3388671875 21367.3798828 86.3388671875 c 2
 21061.6621094 86.3388671875 l 2
 21032.546875 86.53515625 21012.7314453 112.1640625 21012.9560547 140.263671875 c 2
 21014.6962891 704.732421875 l 1
13699.2929688 132.536132812 m 1
 13699.2929688 -18.6123046875 l 2
 13699.2929688 -76.30859375 13741.3632812 -113.155273438 13798.5185547 -113.155273438 c 2
 14290.2802734 -113.079101562 l 2
 14323.7880859 -112.733398438 14345.1064453 -86.1923828125 14344.9707031 -59.080078125 c 2
 14345.1894531 225.303710938 l 2
 14345.1894531 352.920898438 14202.4892578 378.174804688 14130.8105469 331.708984375 c 0
 14081.375 299.663085938 14046.9384766 216.939453125 14086.9707031 151.01953125 c 0
 14134.3095703 73.0703125 14203.8974609 87.3173828125 14305.2089844 86.9638671875 c 2
 14567.2802734 86.0478515625 l 1
22256.4023438 334.048828125 m 1
 22256.4023438 139.099609375 l 2
 22256.4023438 113.186523438 22229.3222656 86.9375 22204.2402344 86.9375 c 2
 21812.7597656 86.9375 l 2
 21749.4492188 86.9375 21694.7363281 133.615234375 21694.7363281 193.896484375 c 2
 21694.7363281 334.048828125 l 1
6689.44042969 515.560546875 m 0
 6894.19140625 486.495117188 7061.00976562 325.227539062 7061.00976562 138.837890625 c 0
 7061.00976562 108.59765625 7038.35449219 87.18359375 7009.30273438 87.18359375 c 2
 6435.54492188 87.18359375 l 1
6586.69042969 219.857421875 m 0
 6586.69042969 152.205078125 6641.63378906 97.26171875 6709.28613281 97.26171875 c 0
 6776.93945312 97.26171875 6831.8828125 152.205078125 6831.8828125 219.857421875 c 0
 6831.8828125 287.509765625 6776.93945312 342.453125 6709.28613281 342.453125 c 0
 6641.63378906 342.453125 6586.69042969 287.509765625 6586.69042969 219.857421875 c 0
5909.17285156 431.036132812 m 0
 6156.3828125 431.036132812 6254.23242188 309.333984375 6252.48144531 138.697265625 c 0
 6252.48144531 108.456054688 6229.82714844 87.04296875 6200.77441406 87.04296875 c 2
 5650.56738281 87.04296875 l 1
5801.71289062 219.716796875 m 0
 5801.71289062 152.063476562 5856.65625 97.1201171875 5924.30957031 97.1201171875 c 0
 5991.96191406 97.1201171875 6046.90527344 152.063476562 6046.90527344 219.716796875 c 0
 6046.90527344 287.369140625 5991.96191406 342.3125 5924.30957031 342.3125 c 0
 5856.65625 342.3125 5801.71289062 287.369140625 5801.71289062 219.716796875 c 0
5122.17578125 421.03125 m 0
 5380.74707031 417.044921875 5492.96386719 291.286132812 5489.1640625 139.389648438 c 0
 5489.1640625 109.149414062 5466.50976562 86.7578125 5437.45703125 86.7578125 c 2
 4872.99023438 86.7578125 l 1
5044.74609375 137.087890625 m 1
 5044.74609375 233.745117188 l 1
 5055.86914062 341.911132812 5185.65625 363.243164062 5263.22265625 243.809570312 c 0
 5325.70410156 147.6015625 5261.14550781 87.6533203125 5195.49023438 87.12109375 c 0
7501.71777344 482.146484375 m 0
 7760.2890625 478.16015625 7872.50585938 291.171875 7868.70605469 139.274414062 c 0
 7868.70605469 109.034179688 7846.05175781 86.6435546875 7816.99902344 86.6435546875 c 2
 7252.53222656 86.6435546875 l 1
7424.28808594 136.973632812 m 1
 7424.28808594 233.629882812 l 1
 7435.41113281 341.795898438 7565.19824219 363.127929688 7642.76464844 243.694335938 c 0
 7705.24609375 147.487304688 7640.6875 87.5380859375 7575.03320312 87.005859375 c 0
20620.2558594 409.772460938 m 1
 20620.2763672 137.701171875 l 2
 20620.2763672 108.458984375 20597.9121094 85.9443359375 20567.1347656 85.9443359375 c 2
 20484.8730469 85.9443359375 l 1
20436.9775391 409.62890625 m 1
 20436.9775391 137.565429688 l 2
 20436.9775391 108.323242188 20414.6142578 85.80859375 20383.8603516 85.80859375 c 2
 20301.5966797 85.80859375 l 1
20253.8818359 411.69140625 m 1
 20253.8818359 -62.8984375 l 2
 20253.8818359 -92.1552734375 20231.5175781 -114.84375 20200.7558594 -114.655273438 c 2
 19933.71875 -114.16015625 l 2
 19906.3681641 -114.4375 19884.9951172 -86.7177734375 19884.9951172 -58.083984375 c 2
 19885.2480469 220.248046875 l 1
19104.8095703 103.18359375 m 0
 19208.9619141 246.759765625 19309.0507812 396.129882812 19424.9726562 353.229492188 c 1
 19474.6298828 332.633789062 19499.5751953 287.17578125 19501.1777344 205.176757812 c 1
 19503.9921875 137.987304688 l 2
 19505.2109375 108.767578125 19481.6357422 86.23046875 19450.859375 86.23046875 c 2
 18909.3574219 86.23046875 l 1
19048.2304688 311.060546875 m 1
 19047.9287109 131.666015625 l 1
18177.1894531 103.108398438 m 0
 18281.3486328 246.692382812 18381.4306641 396.061523438 18497.3603516 353.162109375 c 1
 18547.0087891 332.56640625 18571.9619141 287.108398438 18573.5654297 205.109375 c 1
 18576.3789062 137.918945312 l 2
 18577.5976562 108.700195312 18554.0146484 86.1630859375 18523.2382812 86.1630859375 c 2
 18121.3759766 86.1630859375 l 1
18121.3535156 310.90234375 m 1
 18121.3535156 -52.58203125 l 2
 18121.3535156 -81.8388671875 18098.9824219 -104.526367188 18068.2275391 -104.338867188 c 2
 17801.1826172 -102.735351562 l 2
 17772.7216797 -102.735351562 17752.4589844 -76.0419921875 17752.4589844 -46.65234375 c 2
 17751.5966797 231.6875 l 1
16161.7792969 86.7294921875 m 1
 16623.9833984 86.955078125 l 2
 16684.5361328 87.068359375 16677.6660156 153.475585938 16658.7861328 169.481445312 c 1
 16379.1064453 454.653320312 l 1
 16344.4990234 485.453125 16350.0654297 530.930664062 16376.3603516 545.44140625 c 1
 16475.0341797 606.36328125 16682.8076172 653.051757812 16720.2265625 653.650390625 c 0
17338.5195312 -204.53515625 m 1
 17098.1591797 -204.422851562 l 2
 17049.2167969 -205.265625 17013.4511719 -169.99609375 17013.4882812 -124.372070312 c 2
 17013.3447266 -9.044921875 l 2
 17013.2949219 36.7509765625 17053.8505859 86.57421875 17105.1943359 86.521484375 c 2
 17350.9960938 86.521484375 l 2
 17357.3623047 86.3486328125 17373.5332031 97.0185546875 17374.8203125 103.173828125 c 0
 17376.3554688 111.625 17378.6269531 103.03125 17377.8818359 117.049804688 c 1
 17336.4277344 117.208007812 17301.1357422 149.211914062 17270.9003906 182.44140625 c 0
 17232.0273438 225.198242188 17187.546875 301.147460938 17076.6738281 343.603515625 c 0
15511.5419922 86.5791015625 m 1
 15993.8447266 86.5791015625 l 2
 16000.21875 86.40625 16016.3818359 97.076171875 16017.6689453 103.216796875 c 0
 16019.2119141 111.666992188 16021.4921875 111.404296875 16020.7392578 125.430664062 c 1
 15979.2773438 125.595703125 15942.8105469 153.318359375 15910.2363281 182.4921875 c 0
 15867.7353516 220.545898438 15821.1025391 273.987304688 15768.9931641 310.686523438 c 0
 15713.8349609 349.522460938 15659.2490234 362.6015625 15617.9140625 373.000976562 c 0
15245.1054688 -186.208007812 m 1
 14956.6298828 -186.087890625 l 2
 14932.9853516 -186.379882812 14914.4863281 -166.16796875 14914.3369141 -139.01171875 c 2
 14914.1982422 38.0048828125 l 1
 14915.3916016 64.39453125 14928.3193359 86.412109375 14958.9394531 86.47265625 c 2
 15245.1396484 86.787109375 l 1
15205.9052734 288.87109375 m 0
 15189.1621094 296.072265625 15173.0419922 301.813476562 15157.7011719 306.177734375 c 0
 15001.6591797 350.409179688 14925.375 250.967773438 15076.6435547 87.337890625 c 0
15010.0283203 456.493164062 m 1
 15010.0283203 456.493164062 l 1
15936.7988281 451.82421875 m 1
 15936.7988281 451.82421875 l 1
15839.9082031 -105.877929688 m 1
 15839.9082031 -105.877929688 l 1
17199.6328125 -60.9296875 m 1
 17199.6328125 -60.9296875 l 1
17280.1416016 365.440429688 m 1
 17280.1416016 365.440429688 l 1
18212.5410156 420.97265625 m 1
 18212.5410156 420.97265625 18212.5507812 420.97265625 18212.5410156 420.97265625 c 1
19140.4853516 423.147460938 m 1
 19140.4853516 423.147460938 l 1
20537.4589844 516.321289062 m 1
 20537.4589844 516.321289062 l 1
20345.1738281 516.7578125 m 1
 20345.1738281 516.7578125 l 1
20440.1992188 610.91015625 m 1
 20440.1992188 610.91015625 l 1
10874.6806641 638.7734375 m 1
 11142.9443359 637.546875 l 2
 11172.140625 637.418945312 11194.640625 615.174804688 11194.640625 584.420898438 c 2
 11194.640625 33.498046875 l 1
13087.6884766 638.810546875 m 1
 12913.6357422 637.577148438 l 2
 12884.3642578 637.374023438 12861.8642578 615.212890625 12861.8642578 584.451171875 c 2
 12861.8642578 33.53515625 l 1
13180.4697266 693.485351562 m 1
 13180.4697266 34.2412109375 l 1
12708.4306641 693.637695312 m 1
 12708.4306641 511.060546875 l 2
 12708.4306641 481.818359375 12686.0820312 459.311523438 12655.3046875 459.303710938 c 2
 12573.0576172 459.303710938 l 1
12525.1992188 693.501953125 m 1
 12525.1992188 510.91796875 l 2
 12525.1992188 481.67578125 12502.8496094 459.17578125 12472.0732422 459.17578125 c 2
 12389.75 459.162109375 l 1
12340.9892578 693.833984375 m 1
 12340.9892578 34.212890625 l 1
23613.734375 649.428710938 m 1
 23438.9824219 521.391601562 l 2
 23400.1162109 493.489257812 23411.8925781 469.943359375 23440.6230469 438.978515625 c 1
 23573.3017578 317.924804688 l 1
 23429.7265625 157.82421875 l 2
 23405.1279297 131.3515625 23393.7197266 104.713867188 23421.1777344 87.0908203125 c 1
 23734.2978516 86.8720703125 l 1
12100.6416016 641.766601562 m 1
 11944.0488281 526.010742188 l 1
 11917.1992188 502.737304688 11892.6523438 490.63671875 11936.2978516 457.721679688 c 1
 12064.2216797 369.650390625 l 1
 11930.0517578 176.567382812 l 2
 11909.7353516 148.236328125 11872.6230469 86.73828125 11927.5097656 86.9990234375 c 2
 12211.1083984 86.396484375 l 1
9767.98144531 34.2734375 m 1
 9768.20703125 517.705078125 l 1
 9748.76269531 650.391601562 9617.14453125 661.227539062 9553.6484375 617.651367188 c 1
 9499.34179688 588.57421875 9462.59765625 503.663085938 9509.97460938 426.984375 c 1
 9564.17675781 348.973632812 9629.3125 375.76953125 9728.22753906 368.7109375 c 0
10766.7734375 671.767578125 m 1
 10614.3925781 91.0615234375 l 1
 10607.2441406 73.4755859375 10574.7373047 72.572265625 10564.7285156 90.8349609375 c 1
 10378.1855469 671.767578125 l 1
9942.06347656 40.8583984375 m 1
 10094.4960938 621.557617188 l 1
 10101.6435547 639.151367188 10134.1523438 640.046875 10144.1601562 621.783203125 c 1
 10330.6279297 40.8583984375 l 1
11617.2412109 601.333984375 m 0
 11742.6806641 524.165039062 11851.0410156 75.8525390625 11561.40625 74.046875 c 0
 11271.8457031 72.248046875 11377.5722656 517.897460938 11499.25 598.353515625 c 0
 11537.1757812 623.44921875 11579.6914062 624.419921875 11617.2412109 601.333984375 c 0
24794.7685547 -110.895507812 m 1
 24169.0175781 -110.77734375 l 1
 23953.3076172 -103.637695312 23965.7021484 84.75 24091.8583984 117.421875 c 0
 24202.2099609 146.0078125 24190.0195312 192.403320312 24214.0546875 226.68359375 c 0
 24286.8808594 330.565429688 24398.4912109 287.665039062 24452.1894531 254.004882812 c 0
25691.6708984 276.287109375 m 1
 25418.0957031 -0.0205078125 l 1
26391.2949219 214.337890625 m 1
 26002.4667969 213.065429688 l 1
26391.2949219 63.62109375 m 1
 26002.4667969 62.3486328125 l 1
26682.5498047 257.33984375 m 0
 26739.7246094 259.770507812 26787.2587891 209.473632812 26787.4179688 156.159179688 c 0
 26787.4179688 102.845703125 26741.5078125 59.7197265625 26686.2519531 59.44140625 c 0
 26630.9892578 59.44140625 26588.0898438 101.137695312 26583.5898438 154.676757812 c 0
 26579.0820312 208.202148438 26625.3525391 254.961914062 26682.5498047 257.33984375 c 0
27764.4287109 266.669921875 m 0
 27821.6103516 269.092773438 27869.1376953 218.803710938 27869.2958984 165.489257812 c 0
 27869.2958984 112.182617188 27823.3789062 69.0498046875 27768.1308594 68.771484375 c 0
 27712.8759766 68.771484375 27669.9677734 110.467773438 27665.46875 164.006835938 c 0
 27660.9609375 217.532226562 27707.2314453 264.291992188 27764.4287109 266.669921875 c 0
27444.4921875 66.228515625 m 1
 27760.0341797 69.3212890625 l 1
27072.6396484 240.337890625 m 0
 27109.9326172 283.756835938 27179.1328125 284.140625 27218.1708984 247.84765625 c 0
 27257.1132812 211.442382812 27257.2558594 148.443359375 27219.7216797 107.891601562 c 0
 27181.984375 67.53515625 27122.2216797 64.66796875 27080.0429688 97.943359375 c 0
 27037.8808594 131.2109375 27035.3085938 196.94140625 27072.6396484 240.337890625 c 0
27000.5507812 -130.25 m 1
 27213.7998047 102.353515625 l 1
23109.6943359 -188.78125 m 1
 22672.3369141 -188.666992188 l 1
 22456.6279297 -181.524414062 22469.0214844 6.8642578125 22595.1767578 39.5361328125 c 0
 22705.5380859 68.109375 22696.0341797 112.783203125 22717.3818359 148.796875 c 0
 22770.6582031 238.672851562 22879.7470703 232.776367188 22920.34375 155.260742188 c 0
 22946.3583984 105.57421875 22981.3085938 87.2080078125 23035.6621094 87.212890625 c 2
 23109.6767578 87.21875 l 1
-5519.65527344 714.475585938 m 1
 -5388.70117188 264.705078125 l 1
-5314.7265625 693.807617188 m 1
 -5314.7265625 140.623046875 l 2
 -5314.7265625 108.345703125 -5336.83886719 86.791015625 -5365.24707031 86.791015625 c 2
 -5600.53027344 86.791015625 l 1
-5351.11523438 297.143554688 m 1
 -5451.71777344 296.408203125 l 1
 -5452.89550781 296.408203125 l 1
 -5452.82226562 295.23046875 l 1
 -5451.44140625 244.372070312 -5464.84570312 209.916992188 -5486.6015625 184.028320312 c 0
 -5508.35839844 158.138671875 -5538.57910156 140.78515625 -5571.08691406 124.564453125 c 1
 -5570.57226562 122.356445312 l 1
 -5490.64941406 123.975585938 l 1
 -5490.35546875 124.048828125 l 1
 -5490.06054688 124.122070312 l 1
 -5399.43066406 174.771484375 -5360.58691406 232.916015625 -5349.93847656 295.744140625 c 2
 -5349.71679688 297.142578125 l 1
 -5351.11523438 297.142578125 l 1
 -5351.11523438 297.143554688 l 1
4833.96289062 86.8046875 m 1
 4695.46386719 86.9072265625 l 2
 4650.95214844 87.083984375 4626.51855469 50.6259765625 4658.62597656 9.0595703125 c 1
 4769.23730469 -124.556640625 l 1
 4788.44628906 -143.765625 4776.82324219 -187.112304688 4726.64355469 -187.112304688 c 2
 4496.58398438 -187.112304688 l 2
 4432.5234375 -187.112304688 4355.25585938 -153.080078125 4355.25585938 -61.6669921875 c 2
 4355.25585938 134.263671875 l 1
3752.11816406 86.6884765625 m 1
 4219.84375 86.6884765625 l 1
4170.37011719 341.239257812 m 0
 3887.13867188 426.618164062 3795.26171875 289.54296875 3993.36621094 97.7333984375 c 0
2356.95898438 86.8154296875 m 1
 2451.65234375 86.8154296875 l 1
 2493.140625 94.54296875 2508.37207031 114.952148438 2509.27929688 141.125 c 2
 2509.27929688 272.025390625 l 2
 2508.62011719 375.580078125 2636.28417969 405.125976562 2702.84472656 334.690429688 c 0
 2850.37109375 178.573242188 2747.89746094 86.6962890625 2621.38378906 86.6962890625 c 2
 2556.09472656 86.9072265625 l 1
3676.94238281 86.8037109375 m 1
 3565.25292969 86.8271484375 l 2
 3539.6484375 86.8271484375 3518.4296875 106.662109375 3518.4296875 132.220703125 c 1
 3514.46289062 214.728515625 l 2
 3511.45507812 277.31640625 3451.27734375 311.256835938 3383.74121094 273.418945312 c 0
 3344.11035156 251.213867188 3305.28808594 224.9609375 3269.82421875 191.325195312 c 1
 3251.30273438 175.27734375 3249.53222656 138.421875 3270.24121094 119.530273438 c 1
 3385.09667969 -10.2265625 l 1
 3411.82519531 -36.955078125 3381.39746094 -76.4765625 3345.37695312 -76.2880859375 c 2
 3079.73925781 -76.2880859375 l 1
 3010.984375 -77.49609375 2964.32421875 -20.177734375 2964.32421875 47.755859375 c 2
 2964.32421875 251.1171875 l 1
2295.90039062 87.0771484375 m 1
 2042.51660156 87.0771484375 l 1
2139.59863281 91.931640625 m 1
 2139.59863281 -50.7783203125 l 2
 2139.59863281 -71.7939453125 2123.81542969 -101.1171875 2092.99902344 -101.1171875 c 2
 1956.11425781 -101.1171875 l 2
 1874.08398438 -101.1171875 1777.484375 -45.5771484375 1777.484375 37.5654296875 c 2
 1777.484375 220.079101562 l 1
-4827.31542969 693.77734375 m 1
 -4827.31542969 140.592773438 l 2
 -4827.31542969 108.315429688 -4849.42773438 86.7607421875 -4877.8359375 86.7607421875 c 2
 -5158.05175781 86.7607421875 l 1
-5009.48925781 598.359375 m 1
 -5009.48925781 93.4873046875 l 1
-5722.77050781 692.766601562 m 1
 -5722.77050781 143.366210938 l 2
 -5722.77050781 111.088867188 -5744.8828125 86.7607421875 -5773.29101562 86.7607421875 c 2
 -5963.17871094 86.7607421875 l 1
-5904.94433594 692.47265625 m 1
 -5904.94433594 191.299804688 l 1
-4485.19921875 103.6875 m 0
 -4381.046875 247.263671875 -4280.95703125 396.633789062 -4165.03613281 353.734375 c 1
 -4115.37890625 333.137695312 -4090.43359375 287.6796875 -4088.83007812 205.680664062 c 1
 -4086.01660156 138.491210938 l 2
 -4084.796875 109.271484375 -4108.37304688 86.734375 -4139.14941406 86.734375 c 2
 -4604.56933594 86.734375 l 1
-4471.96386719 694.705078125 m 1
 -4471.96386719 121.833007812 l 1
-1871.85253906 410.676757812 m 1
 -1871.828125 138.60546875 l 2
 -1871.828125 109.36328125 -1894.19238281 86.8642578125 -1924.96972656 86.8486328125 c 2
 -2007.23242188 86.8486328125 l 1
-2055.12988281 410.534179688 m 1
 -2055.12988281 138.469726562 l 2
 -2055.12988281 109.228515625 -2077.49414062 86.720703125 -2108.24804688 86.720703125 c 2
 -2190.52539062 86.720703125 l 1
-2237.57714844 410.752929688 m 1
 -2237.55371094 138.680664062 l 2
 -2237.55371094 109.439453125 -2259.91796875 86.939453125 -2290.69433594 86.9248046875 c 2
 -2469.22753906 86.9248046875 l 1
-1361.60058594 410.509765625 m 1
 -1361.57617188 138.438476562 l 2
 -1361.57617188 109.196289062 -1383.94042969 86.6962890625 -1414.71777344 86.681640625 c 2
 -1702.9609375 86.681640625 l 1
-3530.17773438 86.431640625 m 1
 -3818.45996094 86.431640625 l 1
 -3879.36914062 87.4951171875 -3925.62597656 137.455078125 -3922.54199219 189.423828125 c 1
 -3906.90136719 369.272460938 -3659.40722656 421.680664062 -3658.83886719 267.346679688 c 2
 -3658.83886719 33.265625 l 2
 -3658.83886719 -40.7265625 -3714.1328125 -113.471679688 -3797.0703125 -113.471679688 c 2
 -3989.53125 -113.471679688 l 1
-3217.46386719 221.49609375 m 1
 -3217.46386719 32.9423828125 l 2
 -3217.46386719 -49.1875 -3276.09863281 -113.631835938 -3356.92285156 -113.631835938 c 2
 -3458.671875 -113.631835938 l 1
-3063.06347656 86.84765625 m 1
 -3188.29199219 86.84765625 l 1
-2895.00976562 693.30859375 m 1
 -2895.00976562 141.331054688 l 2
 -2895.00976562 114.415039062 -2914.53125 86.8427734375 -2948.69433594 86.8427734375 c 2
 -3035.65820312 86.8427734375 l 1
-2665.39550781 693.751953125 m 1
 -2665.13378906 142.983398438 l 2
 -2665.13378906 139.452148438 -2660.19238281 86.8193359375 -2718.20507812 86.8193359375 c 0
-74.005859375 86.72265625 m 1
 -195.03125 86.72265625 l 1
-227.869140625 221.759765625 m 1
 -227.869140625 -49.4443359375 l 2
 -227.543945312 -75.30078125 -250.43359375 -101.450195312 -279.162109375 -101.450195312 c 2
 -417.755859375 -101.450195312 l 2
 -498.321289062 -101.450195312 -591.747070312 -38.88671875 -591.747070312 30.935546875 c 2
 -591.747070312 221.169921875 l 1
-1037.25488281 363.643554688 m 0
 -965.600585938 327.192382812 -857.368164062 267.116210938 -851.415039062 137.891601562 c 0
 -850.942382812 114.516601562 -866.083007812 86.4052734375 -903.881835938 86.4052734375 c 2
 -1167.68652344 86.4052734375 l 1
903.481445312 693.198242188 m 1
 903.481445312 141.220703125 l 2
 903.481445312 114.305664062 883.959960938 86.732421875 849.796875 86.732421875 c 2
 527.333007812 86.732421875 l 1
764.859375 463.748046875 m 1
 665.072265625 463.748046875 l 2
 644.784179688 463.694335938 650.254882812 455.075195312 654.260742188 446.265625 c 2
 690.143554688 370.1796875 l 2
 694.036132812 360.737304688 700.22265625 352.295898438 682.922851562 352.723632812 c 2
 572.2734375 352.723632812 l 1
1518.60058594 729.625976562 m 1
 1518.60058594 -7.7490234375 l 2
 1518.60058594 -34.6650390625 1499.08007812 -62.23828125 1464.91699219 -62.23828125 c 2
 1205.44628906 -62.7236328125 l 2
 1172.87988281 -62.7236328125 1151.41796875 -42.541015625 1151.41796875 -10.404296875 c 2
 1151.27636719 178.840820312 l 1
-6128.15136719 397.875976562 m 1
 -6128.15136719 139.115234375 l 2
 -6128.15136719 111.28515625 -6151.52734375 86.8740234375 -6179.95507812 86.8740234375 c 2
 -6320.27441406 86.8740234375 l 2
 -6392.2734375 86.8740234375 -6434.47851562 162.799804688 -6382.82910156 219.91015625 c 1
 -6314.109375 284.702148438 -6257.60449219 320.524414062 -6212.39453125 428.806640625 c 0
8778.02734375 802.884765625 m 0
 8570.10253906 458.404296875 8563.50488281 111.68359375 8780.19824219 -255.326171875 c 0
9122.44726562 750.360351562 m 1
 8981.43554688 750.360351562 l 1
 8981.43554688 -202.360351562 l 1
 9123.48046875 -202.360351562 l 1
8489.70605469 751.432617188 m 0
 8413.28125 753.651367188 8348.77832031 714.721679688 8348.77832031 643.995117188 c 2
 8348.77832031 391.614257812 l 2
 8348.77832031 319.270507812 8296.72070312 273.942382812 8208.65722656 273.942382812 c 1
 8295.42773438 273.942382812 8349.34863281 232.786132812 8349.34863281 156.780273438 c 2
 8349.34863281 -80.5869140625 l 2
 8349.34863281 -168.681640625 8413.77734375 -203.52734375 8489.70605469 -203.52734375 c 0
-6792.93652344 -205.197265625 m 1
 -6792.93652344 34.6083984375 l 2
 -6792.93652344 62.439453125 -6769.56054688 86.849609375 -6741.1328125 86.849609375 c 2
 -6600.81347656 86.849609375 l 1
-6885.62792969 -228.181640625 m 0
 -6906.0703125 -123.809570312 -6945.31347656 -116.041992188 -6981.80664062 -57.607421875 c 0
 -7016.00488281 -2.8505859375 -6998.66601562 85.2470703125 -7048.65625 86.849609375 c 1
 -7188.97558594 86.849609375 l 1
EndSplineSet
EndChar

StartChar: uni0664.alt
Encoding: 65536 -1 28
Width: 1000
VWidth: 34
Flags: HW
LayerCount: 2
Back
SplineSet
493.228515625 718.4140625 m 1
 594.771484375 579.5859375 l 1
 455.908203125 478.017578125 l 1
 561.874023438 381.61328125 l 0
 598.135742188 348.623046875 596.177734375 291.862304688 567.922851562 260.46875 c 0
 489.201171875 173 l 1
 665 173 l 1
 665 1 l 1
 351 1 l 2
 313.473165598 1 283.113132677 26.111527222 266.38671875 52.9775390625 c 0
 231.821289062 108.498046875 257.534179688 163.823242188 274.37890625 188.7265625 c 4
 281.478515625 199.223632812 289.087890625 208.227539062 296.932617188 216.482421875 c 1
 382.854492188 311.950195312 l 1
 313.125976562 375.38671875 l 0
 311.913085938 376.490234375 309.702148438 378.639648438 308.196289062 380.248046875 c 0
 293.184570312 396.295898438 271.848632812 416.625 261.836914062 456.340820312 c 0
 250.012695312 503.2421875 273.033203125 550.75390625 301.059570312 576.479492188 c 0
 306.661132812 581.622070312 313.151367188 586.772460938 318.53515625 590.638671875 c 1
 493.228515625 718.4140625 l 1
543.967773438 649.428710938 m 1
 369.215820312 521.391601562 l 2
 330.349609375 493.489257812 342.125976562 469.943359375 370.856445312 438.978515625 c 1
 503.53515625 317.924804688 l 1
 359.959960938 157.82421875 l 2
 335.361328125 131.3515625 323.953125 104.713867188 351.411132812 87.0908203125 c 1
 664.53125 86.8720703125 l 1
EndSplineSet
Fore
SplineSet
493.228515625 718.4140625 m 1
 594.771484375 579.5859375 l 1
 443.5 469 l 1
 443.5 489.25 l 1
 561.874023438 381.61328125 l 0
 598.135742188 348.623046875 596.177734375 291.862304688 567.922851562 260.46875 c 0
 476.665039062 159.166992188 l 1
 469 173 l 1
 665 173 l 1
 665 1 l 1
 351 1 l 2
 313.473165598 1 283.113132677 26.111527222 266.38671875 52.9775390625 c 0
 221.945078682 124.361648761 268.411214865 186.469797222 296.932617188 216.482421875 c 2
 382.854492188 311.950195312 l 1
 313.125976562 375.38671875 l 2
 294.495446655 392.337200872 272.482312793 414.111233797 261.836914062 456.340820312 c 0
 250.012695312 503.2421875 271.417711166 555.407527767 315.059570312 587.479492188 c 2
 315.059570312 587.479492188 430.00747723 672.172505834 493.228515625 718.4140625 c 1
EndSplineSet
EndChar

StartChar: uni0647.medi
Encoding: 65537 -1 29
Width: 1000
VWidth: 34
Flags: HW
LayerCount: 2
Back
SplineSet
738 -205 m 1
 566 -205 l 1
 566 35 l 2
 566 111.4453125 627.78125 173 704 173 c 2
 844 173 l 1
 844 1 l 1
 738 1 l 1
 738 -205 l 1
593.452148438 -211.758789062 m 1
 424.547851562 -244.241210938 l 1
 408.88671875 -162.807617188 396.053710938 -193.7734375 339.889648438 -103.287109375 c 1
 314.629882812 -62.4248046875 309.100585938 -22.8701171875 304.478515625 1 c 1
 206 1 l 1
 206 173 l 1
 347.719726562 173 l 1
 379.609375 171.724609375 407.75 159.245117188 428.102539062 138.953125 c 0
 499.1953125 68.072265625 481.670898438 -5.5322265625 486.110351562 -12.712890625 c 5
 501.946289062 -38.2265625 569.11328125 -85.1923828125 593.452148438 -211.758789062 c 1
601.958007812 -205.197265625 m 1
 601.958007812 34.6083984375 l 2
 601.958007812 62.439453125 625.333984375 86.849609375 653.76171875 86.849609375 c 2
 794.081054688 86.849609375 l 1
509.266601562 -228.181640625 m 0
 488.82421875 -123.809570312 449.581054688 -116.041992188 413.087890625 -57.607421875 c 0
 378.889648438 -2.8505859375 396.228515625 85.2470703125 346.23828125 86.849609375 c 1
 205.918945312 86.849609375 l 1
EndSplineSet
Fore
SplineSet
738 -205 m 1
 566 -205 l 1
 566 35 l 2
 566 111.4453125 627.78125 173 704 173 c 2
 844 173 l 1
 844 1 l 1
 738 1 l 1
 738 -205 l 1
593.452148438 -211.758789062 m 1
 424.547851562 -244.241210938 l 1
 408.88671875 -162.807617188 396.053710938 -193.7734375 339.889648438 -103.287109375 c 0
 314.629882812 -62.4248046875 314.356445312 1 289.478515625 1 c 2
 191 1 l 1
 191 173 l 1
 332.719726562 173 l 2
 473.302734375 173 466.857875487 16.9910564116 486.110351562 -12.712890625 c 0
 520 -65 569.11328125 -85.1923828125 593.452148438 -211.758789062 c 1
EndSplineSet
EndChar

StartChar: u0644_u0627.isol
Encoding: 65538 -1 30
Width: 1000
VWidth: 34
Flags: HW
LayerCount: 2
Back
SplineSet
437.97265625 714.475585938 m 1
 568.926757812 264.705078125 l 1
642.90234375 693.807617188 m 1
 642.90234375 140.623046875 l 2
 642.90234375 108.345703125 620.7890625 86.791015625 592.381835938 86.791015625 c 2
 357.09765625 86.791015625 l 1
606.512695312 297.143554688 m 1
 505.91015625 296.408203125 l 1
 504.733398438 296.408203125 l 1
 504.806640625 295.23046875 l 1
 506.1875 244.372070312 492.783203125 209.916992188 471.02734375 184.028320312 c 0
 449.26953125 158.138671875 419.049804688 140.78515625 386.541992188 124.564453125 c 1
 387.056640625 122.356445312 l 1
 466.979492188 123.975585938 l 1
 467.2734375 124.048828125 l 1
 467.567382812 124.122070312 l 1
 558.198242188 174.771484375 597.041992188 232.916015625 607.690429688 295.744140625 c 2
 607.911132812 297.142578125 l 1
 606.512695312 297.142578125 l 1
 606.512695312 297.143554688 l 1
EndSplineSet
Fore
SplineSet
657 692 m 1
 829 692 l 1
 829 138 l 2
 829 62 766 0 690 0 c 2
 357 0 l 1
 357 172 l 1
 677 172 l 1
 657 152 l 1
 657 692 l 1
492 289 m 1
 652 289 l 17
 641 196 575.220703125 149.291015625 482 124 c 1
 372 124 l 1
 440 157 494 187 492 289 c 1
355.442382812 689.913085938 m 1
 520.557617188 738.086914062 l 1
 651.557617188 289.086914062 l 1
 486.442382812 240.913085938 l 1
 355.442382812 689.913085938 l 1
EndSplineSet
EndChar

StartChar: u0644_u0627.isol.alt1
Encoding: 65539 -1 31
Width: 1000
VWidth: 34
Flags: HW
LayerCount: 2
Back
SplineSet
620.204101562 692.766601562 m 1
 620.204101562 143.366210938 l 2
 620.204101562 111.088867188 598.091796875 86.7607421875 569.68359375 86.7607421875 c 2
 379.795898438 86.7607421875 l 1
438.030273438 692.47265625 m 1
 438.030273438 191.299804688 l 1
EndSplineSet
Fore
SplineSet
584 692 m 1
 756 692 l 1
 756 138 l 2
 756 62 693 0 617 0 c 2
 350 0 l 1
 350 172 l 1
 604 172 l 1
 584 152 l 1
 584 692 l 1
352 692 m 1
 524 692 l 1
 524 221 l 1
 352 221 l 1
 352 692 l 1
EndSplineSet
EndChar

StartChar: u0644_u0627.isol.alt2
Encoding: 65540 -1 32
Width: 1000
VWidth: 34
Flags: HW
LayerCount: 2
Back
SplineSet
665.368164062 693.77734375 m 1
 665.368164062 140.592773438 l 2
 665.368164062 108.315429688 643.255859375 86.7607421875 614.84765625 86.7607421875 c 2
 334.631835938 86.7607421875 l 1
483.194335938 598.359375 m 1
 483.194335938 93.4873046875 l 1
EndSplineSet
Fore
SplineSet
629 692 m 1
 801 692 l 1
 801 138 l 2
 801 62 738 0 662 0 c 2
 325 0 l 1
 325 172 l 1
 649 172 l 1
 629 152 l 1
 629 692 l 1
397 598 m 1
 569 598 l 1
 569 93 l 1
 397 93 l 1
 397 598 l 1
EndSplineSet
EndChar

StartChar: uni0648.fina
Encoding: 65541 -1 33
Width: 1000
VWidth: 34
Flags: HW
LayerCount: 2
Back
SplineSet
729.676757812 86.431640625 m 1
 441.39453125 86.431640625 l 1
 380.485351562 87.4951171875 334.228515625 137.455078125 337.3125 189.423828125 c 1
 352.953125 369.272460938 600.447265625 421.680664062 601.015625 267.346679688 c 2
 601.015625 33.265625 l 2
 601.015625 -40.7265625 545.721679688 -113.471679688 462.784179688 -113.471679688 c 2
 270.323242188 -113.471679688 l 1
EndSplineSet
Fore
SplineSet
750 172 m 1
 750 0 l 1
 605 0 l 1
 605 172 l 1
 750 172 l 1
EndSplineSet
Refer: 13 1608 N 1 0 0 1 0 0 2
EndChar

StartChar: uni0631.fina
Encoding: 65542 -1 34
Width: 1000
VWidth: 34
Flags: HW
LayerCount: 2
Back
SplineSet
543.403320312 221.49609375 m 1
 543.403320312 32.9423828125 l 2
 543.403320312 -49.1875 484.76953125 -113.631835938 403.9453125 -113.631835938 c 2
 302.1953125 -113.631835938 l 1
697.8046875 86.84765625 m 1
 572.575195312 86.84765625 l 1
EndSplineSet
Fore
SplineSet
718 173 m 5
 718 1 l 5
 573 1 l 5
 573 173 l 5
 718 173 l 5
EndSplineSet
Refer: 3 1585 N 1 0 0 1 0 0 2
EndChar

StartChar: uni0644.int
Encoding: 65543 -1 35
Width: 1000
VWidth: 34
Flags: HW
LayerCount: 2
Back
SplineSet
570.32421875 693.30859375 m 1
 570.32421875 141.331054688 l 2
 570.32421875 114.415039062 550.802734375 86.8427734375 516.639648438 86.8427734375 c 2
 429.67578125 86.8427734375 l 1
EndSplineSet
Fore
SplineSet
484 692 m 1
 656 692 l 1
 656 138 l 2
 656 62 593 0 517 0 c 2
 396 0 l 1
 396 172 l 1
 504 172 l 1
 484 152 l 1
 484 692 l 1
EndSplineSet
EndChar

StartChar: uni0633.init
Encoding: 65544 -1 36
Width: 1000
VWidth: 34
Flags: HW
LayerCount: 2
Back
SplineSet
713.458984375 516.321289062 m 5
 713.458984375 516.321289062 l 5
521.173828125 516.7578125 m 5
 521.173828125 516.7578125 l 5
616.19921875 610.91015625 m 5
 616.19921875 610.91015625 l 5
798.67578125 410.676757812 m 1
 798.69921875 138.60546875 l 2
 798.69921875 109.36328125 776.3359375 86.8642578125 745.55859375 86.8486328125 c 2
 663.294921875 86.8486328125 l 1
615.3984375 410.534179688 m 1
 615.3984375 138.469726562 l 2
 615.3984375 109.228515625 593.034179688 86.720703125 562.279296875 86.720703125 c 2
 480.002929688 86.720703125 l 1
432.950195312 410.752929688 m 1
 432.973632812 138.680664062 l 2
 432.973632812 109.439453125 410.609375 86.939453125 379.833007812 86.9248046875 c 2
 201.30078125 86.9248046875 l 1
EndSplineSet
Fore
SplineSet
347 410 m 1
 519 410 l 1
 519 138 l 2
 519 62 456 0 380 0 c 2
 201 0 l 1
 201 172 l 1
 367 172 l 1
 347 152 l 1
 347 410 l 1
792 410 m 1
 964 410 l 1
 964 138 l 2
 964 61 900 0 824 0 c 2
 722 0 l 1
 722 172 l 1
 812 172 l 1
 792 152 l 1
 792 410 l 1
568 410 m 1
 740 410 l 1
 740 138 l 2
 740 62 677 0 601 0 c 2
 480 0 l 1
 480 172 l 1
 588 172 l 1
 568 152 l 1
 568 410 l 1
EndSplineSet
EndChar

StartChar: uni066E.init
Encoding: 65545 -1 37
Width: 1000
VWidth: 34
Flags: HW
LayerCount: 2
Back
SplineSet
670.66796875 410.509765625 m 1
 670.692382812 138.438476562 l 2
 670.692382812 109.196289062 648.328125 86.6962890625 617.55078125 86.681640625 c 2
 329.307617188 86.681640625 l 1
EndSplineSet
Fore
SplineSet
585 410 m 1
 757 410 l 1
 757 138 l 2
 757 62 694 0 618 0 c 2
 329 0 l 1
 329 172 l 1
 605 172 l 1
 585 152 l 1
 585 410 l 1
EndSplineSet
EndChar

StartChar: uni06BA.fina
Encoding: 65546 -1 38
Width: 1000
VWidth: 34
Flags: HW
LayerCount: 2
Back
SplineSet
758.870117188 86.72265625 m 1
 637.844726562 86.72265625 l 1
605.006835938 221.759765625 m 1
 605.006835938 -49.4443359375 l 2
 605.333007812 -75.30078125 582.442382812 -101.450195312 553.713867188 -101.450195312 c 2
 415.120117188 -101.450195312 l 2
 334.555664062 -101.450195312 241.129882812 -38.88671875 241.129882812 30.935546875 c 2
 241.129882812 221.169921875 l 1
EndSplineSet
Fore
SplineSet
779 173 m 1
 779 1 l 1
 638 1 l 1
 638 173 l 1
 779 173 l 1
EndSplineSet
Refer: 24 1722 N 1 0 0 1 -77 0 2
EndChar

StartChar: uni0649.fina.alt1
Encoding: 65547 -1 39
Width: 1000
VWidth: 34
Flags: HW
LayerCount: 2
Back
SplineSet
759.208007812 87.0771484375 m 1
 505.82421875 87.0771484375 l 1
602.90625 91.931640625 m 1
 602.90625 -50.7783203125 l 2
 602.90625 -71.7939453125 587.123046875 -101.1171875 556.306640625 -101.1171875 c 2
 419.421875 -101.1171875 l 2
 337.391601562 -101.1171875 240.791992188 -45.5771484375 240.791992188 37.5654296875 c 2
 240.791992188 220.079101562 l 1
EndSplineSet
Fore
SplineSet
759 173 m 1
 759 1 l 1
 506 1 l 1
 506 173 l 1
 759 173 l 1
517 92 m 1
 689 92 l 1
 689 -51 l 2
 689 -122.886485377 632.609366774 -187 556 -187 c 2
 419 -187 l 0
 292.846679688 -187 155 -117.606445312 155 38 c 0
 155 220 l 1
 327 220 l 1
 327 38 l 0
 327 7.6064453125 361.153320312 -15 419 -15 c 0
 537 -15 l 1
 517 -35 l 1
 517 92 l 1
EndSplineSet
EndChar

StartChar: uni0649.fina.alt2
Encoding: 65548 -1 40
Width: 1000
VWidth: 34
Flags: HW
LayerCount: 2
Back
SplineSet
856 173 m 1
 856 1 l 1
 745 1 l 0
 703.205078125 1 662.595703125 20.1435546875 637.12109375 54.845703125 c 0
 621.548828125 76.0595703125 612.47265625 106.467773438 612.025390625 129.41015625 c 1
 608.630859375 199.833984375 l 1
 606.883789062 198.9921875 606.625 198.861328125 604.69921875 197.78515625 c 1
 579.434570312 183.889648438 556.583007812 169.272460938 535.666992188 152.74609375 c 1
 627.033203125 48.5576171875 l 1
 649.455078125 24.271484375 660.403320312 -3.3896484375 660.408203125 -33.4091796875 c 0
 660.419921875 -114.686523438 590.40625 -162 525 -162 c 0
 259.821289062 -162 l 2
 133.52734375 -162.865234375 58 -56.8203125 58 48 c 2
 58 251 l 1
 230 251 l 1
 230 48 l 2
 230 17.330078125 244.153320312 9.7939453125 258.376953125 10 c 2
 432.078125 10 l 1
 387.9140625 60.36328125 l 1
 356.708007812 92.3662109375 345.513671875 133.036132812 349.166015625 170.232421875 c 0
 351.999023438 199.092773438 361.446289062 227.209960938 391.1875 254.724609375 c 1
 430.522460938 292.559570312 478.591796875 324.724609375 521.30078125 348.21484375 c 1
 578.141601562 379.978515625 648.381835938 386.344726562 704.923828125 351.29296875 c 0
 728.005859375 336.983398438 746.987304688 316.581054688 759.805664062 292.89453125 c 0
 772.131835938 270.116210938 778.681640625 244.740234375 779.90234375 219.090820312 c 0
 782.124023438 173 l 1
 856 173 l 1
856.30859375 86.8037109375 m 1
 744.620117188 86.8271484375 l 2
 719.015625 86.8271484375 697.796875 106.662109375 697.796875 132.220703125 c 1
 693.829101562 214.728515625 l 2
 690.821289062 277.31640625 630.64453125 311.256835938 563.108398438 273.418945312 c 0
 523.4765625 251.213867188 484.655273438 224.9609375 449.19140625 191.325195312 c 1
 430.669921875 175.27734375 428.8984375 138.421875 449.608398438 119.530273438 c 1
 564.463867188 -10.2265625 l 1
 591.19140625 -36.955078125 560.764648438 -76.4765625 524.743164062 -76.2880859375 c 2
 259.10546875 -76.2880859375 l 1
 190.3515625 -77.49609375 143.69140625 -20.177734375 143.69140625 47.755859375 c 2
 143.69140625 251.1171875 l 1
EndSplineSet
Fore
SplineSet
856 173 m 1
 856 1 l 1
 745 1 l 2
 670.727774306 1 615.7890625 56.1484375 612.025390625 129.41015625 c 2
 607.5 217.5 l 1
 624.5 207.5 l 1
 593.5 196 539.581054688 155.801757812 522 142.75 c 1
 525.25 164.75 l 1
 627.033203125 48.5576171875 l 2
 707.083007812 -42.8251953125 634.777225932 -162 525 -162 c 2
 259.821289062 -162 l 2
 133.52734375 -162.865234375 58 -56.8203125 58 48 c 2
 58 251 l 1
 230 251 l 1
 230 48 l 2
 230 17.330078125 244.151367188 10 258.376953125 10 c 2
 452 10 l 1
 444.25 -3.75 l 1
 387.9140625 60.36328125 l 2
 330.664730446 125.516053889 334.753245226 202.51527993 391.1875 254.724609375 c 0
 430.522460938 292.559570312 479.078838065 323.860050155 521.30078125 348.21484375 c 0
 619.287339623 404.736221598 720.595859615 365.348729549 759.805664062 292.89453125 c 0
 779.348241443 256.780554273 781.78125 222.608398438 782.124023438 153 c 1
 762 173 l 1
 856 173 l 1
EndSplineSet
EndChar

StartChar: uni0639.init
Encoding: 65549 -1 41
Width: 1000
VWidth: 34
Flags: HW
LayerCount: 2
Back
SplineSet
266.13671875 86.6884765625 m 1
 733.86328125 86.6884765625 l 1
684.389648438 381.239257812 m 4
 401.158203125 466.618164062 309.28125 329.54296875 507.385742188 137.733398438 c 4
EndSplineSet
Fore
SplineSet
266 1 m 1
 266 173 l 1
 734 173 l 1
 734 1 l 1
 266 1 l 1
708.73828125 463.365234375 m 1
 659.26171875 298.634765625 l 1
 564.305664062 327.155273438 503.997070312 320.548828125 488.158203125 313.494140625 c 1
 490.619140625 297.153320312 514.6015625 246.33984375 585.262695312 181.256835938 c 1
 468.737304688 54.7431640625 l 1
 349.824263469 164.267263294 251.698734554 313.393234841 358.805664062 428.859375 c 0
 438.60546875 514.887695312 572.4296875 504.305664062 708.73828125 463.365234375 c 1
EndSplineSet
EndChar

StartChar: uni0647.init.alt1
Encoding: 65550 -1 42
Width: 1000
VWidth: 34
Flags: HW
LayerCount: 2
Back
SplineSet
441.051757812 421.03125 m 0
 699.623046875 417.044921875 811.83984375 291.286132812 808.040039062 139.389648438 c 0
 808.040039062 109.149414062 785.385742188 86.7578125 756.333007812 86.7578125 c 2
 191.866210938 86.7578125 l 1
363.622070312 137.087890625 m 1
 363.622070312 233.745117188 l 1
 374.745117188 341.911132812 504.532226562 363.243164062 582.098632812 243.809570312 c 0
 644.580078125 147.6015625 580.021484375 87.6533203125 514.366210938 87.12109375 c 0
EndSplineSet
Fore
SplineSet
440.711914062 395 m 1
 441.288085938 567 l 1
 446.623046875 566.981445312 451.915039062 566.91015625 457.165039062 566.786132812 c 0
 791.887695312 558.864257812 928.599609375 327.359375 924.005859375 138.153320312 c 1
 923.541015625 109.727539062 916.680664062 87.1865234375 903.314453125 65.63671875 c 0
 878.2890625 25.2900390625 833.508789062 1 786 1 c 0
 192 1 l 1
 192 173 l 1
 750.784179688 173 l 1
 740.251953125 273.680664062 672.522460938 394.225585938 440.711914062 395 c 1
515.302734375 1.009765625 m 1
 512.697265625 172.990234375 l 1
 515.548828125 173.033203125 518.486328125 173.626953125 520.646484375 174.434570312 c 1
 519.690429688 178.389648438 517.381835938 185.40234375 509.921875 197.086914062 c 1
 473.583007812 252.043945312 453.508789062 238.018554688 453.508789062 238.018554688 c 1
 453.508789062 238.018554688 451.680664062 238.372070312 450 228.5625 c 1
 450 137 l 1
 278 137 l 1
 278 234 l 0
 278 236.78125 278.231445312 240.643554688 278.442382812 242.713867188 c 0
 284.205078125 299.29296875 312.44140625 350.770507812 358.270507812 381.244140625 c 0
 457.99609375 447.557617188 584.833007812 396.555664062 654.0859375 290.901367188 c 1
 678.057617188 253.783203125 692.282226562 215.173828125 693.138671875 174.642578125 c 0
 693.80859375 142.919921875 685.459960938 111.970703125 670.201171875 86.3876953125 c 0
 634.993164062 27.359375 572.381835938 1.875 515.302734375 1.009765625 c 1
EndSplineSet
EndChar

StartChar: uni0647.init.alt2
Encoding: 65551 -1 43
Width: 1000
VWidth: 34
Flags: HW
LayerCount: 2
Back
SplineSet
457.63671875 431.036132812 m 0
 704.846679688 431.036132812 802.696289062 309.333984375 800.9453125 138.697265625 c 0
 800.9453125 108.456054688 778.291015625 87.04296875 749.23828125 87.04296875 c 2
 199.03125 87.04296875 l 1
350.176757812 219.716796875 m 0
 350.176757812 152.063476562 405.120117188 97.1201171875 472.7734375 97.1201171875 c 0
 540.42578125 97.1201171875 595.369140625 152.063476562 595.369140625 219.716796875 c 0
 595.369140625 287.369140625 540.42578125 342.3125 472.7734375 342.3125 c 0
 405.120117188 342.3125 350.176757812 287.369140625 350.176757812 219.716796875 c 0
EndSplineSet
Fore
SplineSet
458 345 m 1
 458 517 l 1
 741.294921875 517 889.538085938 355.514648438 887 138.497070312 c 1
 887 108.666015625 876.672851562 77.916015625 858.436523438 54.26953125 c 0
 832.489257812 20.626953125 791.75 1 749 1 c 0
 199 1 l 1
 199 173 l 1
 713.73046875 173 l 1
 704.206054688 273.336914062 654.545898438 345 458 345 c 1
264 220 m 0
 264 336.1171875 358.49609375 428 473 428 c 0
 588.172851562 428 681 335.172851562 681 220 c 0
 681 105.49609375 589.1171875 11 473 11 c 0
 357.549804688 11 264 104.549804688 264 220 c 0
436 220 m 0
 436 199.450195312 452.450195312 183 473 183 c 0
 492.8828125 183 509 198.50390625 509 220 c 0
 509 240.827148438 493.827148438 256 473 256 c 0
 451.50390625 256 436 239.8828125 436 220 c 0
EndSplineSet
EndChar

StartChar: uni0647.init
Encoding: 65552 -1 44
Width: 1000
VWidth: 34
Flags: HW
LayerCount: 2
Back
SplineSet
461 451 m 1
 461 623 l 1
 776.282226562 623 918.340820312 319.86328125 914.005859375 138.202148438 c 0
 912.682519591 57.1538288446 848.483972525 1 776 1 c 2
 192 1 l 1
 192 173 l 1
 740.495117188 173 l 1
 726.291992188 296.823242188 627.5078125 451 461 451 c 1
515.302734375 1.009765625 m 1
 512.697265625 172.990234375 l 1
 515.548828125 173.033203125 518.486328125 173.626953125 520.646484375 174.434570312 c 1
 519.690429688 178.387695312 517.37890625 185.40625 509.924804688 197.083984375 c 1
 484.0546875 236.188476562 456.892578125 239.412109375 450.319335938 238.567382812 c 1
 450.1953125 237.794921875 450 236.041015625 450 234 c 0
 450 137 l 1
 278 137 l 1
 278 234 l 0
 278 283.592773438 296.643554688 331.305664062 331.71484375 364.290039062 c 4
 338.586914062 370.752929688 345.958007812 376.568359375 353.685546875 381.692382812 c 0
 453.22265625 447.684570312 583.850585938 398.0546875 654.0859375 290.901367188 c 1
 678.057617188 253.783203125 692.282226562 215.173828125 693.138671875 174.642578125 c 0
 693.80859375 142.919921875 685.459960938 111.970703125 670.201171875 86.3876953125 c 0
 634.993164062 27.359375 572.381835938 1.875 515.302734375 1.009765625 c 1
441.051757812 482.146484375 m 0
 699.623046875 478.16015625 811.83984375 291.171875 808.040039062 139.274414062 c 0
 808.040039062 109.034179688 785.385742188 86.6435546875 756.333007812 86.6435546875 c 2
 191.866210938 86.6435546875 l 1
363.622070312 136.973632812 m 1
 363.622070312 233.629882812 l 1
 374.745117188 341.795898438 504.532226562 363.127929688 582.098632812 243.694335938 c 0
 644.580078125 147.487304688 580.021484375 87.5380859375 514.3671875 87.005859375 c 0
EndSplineSet
Fore
SplineSet
461 451 m 1
 461 623 l 1
 776.282226562 623 918.340820312 319.86328125 914.005859375 138.202148438 c 0
 912.682519591 57.1538288446 848.483972525 1 776 1 c 2
 192 1 l 1
 192 173 l 1
 760 173 l 1
 744 153 l 1
 733.051025391 295.5 628 451 461 451 c 1
515.302734375 1.009765625 m 1
 512.697265625 172.990234375 l 1
 515.548828125 173.033203125 519.548107268 174.645610704 518.5 177.25 c 24
 512.0703125 193.227539062 504.145304539 206.320310692 495.75 215.101646562 c 0
 479.649375568 231.94260691 466 237 457 238 c 0
 452 239 450 236.36328125 450 231 c 2
 450 137 l 1
 278 137 l 1
 278 234 l 2
 278 294.898123264 308.01875674 351.411370828 353.685546875 381.692382812 c 0
 453.22265625 447.684570312 583.850585938 398.0546875 654.0859375 290.901367188 c 0
 693.715920926 229.537614385 709.929495126 152.996519902 670.201171875 86.3876953125 c 0
 634.993164062 27.359375 572.381835938 1.875 515.302734375 1.009765625 c 1
EndSplineSet
EndChar

StartChar: uni0647.init.alt3
Encoding: 65553 -1 45
Width: 1000
VWidth: 34
Flags: HW
LayerCount: 2
Back
SplineSet
441.163085938 515.560546875 m 0
 645.9140625 486.495117188 812.732421875 325.227539062 812.732421875 138.837890625 c 0
 812.732421875 108.59765625 790.077148438 87.18359375 761.025390625 87.18359375 c 2
 187.267578125 87.18359375 l 1
338.413085938 219.857421875 m 0
 338.413085938 152.205078125 393.356445312 97.26171875 461.008789062 97.26171875 c 0
 528.662109375 97.26171875 583.60546875 152.205078125 583.60546875 219.857421875 c 0
 583.60546875 287.509765625 528.662109375 342.453125 461.008789062 342.453125 c 0
 393.356445312 342.453125 338.413085938 287.509765625 338.413085938 219.857421875 c 0
EndSplineSet
Fore
SplineSet
428.954101562 430.84765625 m 1
 453.045898438 601.15234375 l 1
 691.302734375 567.447265625 899 378.393554688 899 139 c 0
 899 108.946289062 889.314453125 79.591796875 871.826171875 56.1044921875 c 0
 845.961914062 21.3671875 804.54296875 1 761 1 c 0
 187 1 l 1
 187 173 l 1
 724.423828125 173 l 1
 706.19921875 292.658203125 585.46484375 408.70703125 428.954101562 430.84765625 c 1
252 220 m 0
 252 336.1171875 346.49609375 428 461 428 c 0
 575.50390625 428 670 336.1171875 670 220 c 0
 670 104.549804688 576.450195312 11 461 11 c 0
 345.549804688 11 252 104.549804688 252 220 c 0
424 220 m 0
 424 199.450195312 440.450195312 183 461 183 c 0
 481.549804688 183 498 199.450195312 498 220 c 0
 498 239.8828125 482.49609375 256 461 256 c 0
 439.50390625 256 424 239.8828125 424 220 c 0
EndSplineSet
EndChar

StartChar: uni062D.init
Encoding: 65554 -1 46
Width: 1000
VWidth: 0
Flags: HW
LayerCount: 2
Back
SplineSet
245 1 m 1
 245 173 l 1
 559.716796875 173 l 1
 521.009765625 210.5 485.458984375 247.932617188 453.198242188 270.887695312 c 1
 413.115234375 299.309570312 372.853515625 309.392578125 331.622070312 319.44921875 c 1
 372.377929688 486.55078125 l 1
 413.146484375 476.607421875 482.884765625 460.690429688 552.801757812 411.112304688 c 1
 616.829101562 365.5546875 665.004882812 308.20703125 700.859375 276.521484375 c 1
 732.961914062 248.310546875 753.624023438 241 755 241 c 4
 835.076171875 241 l 1
 840.78125 161.127929688 l 0
 842.676757812 134.592773438 836.383789062 1 708 1 c 0
 245 1 l 1
671.798828125 451.82421875 m 1
 671.798828125 451.82421875 l 1
574.908203125 -105.877929688 m 1
 574.908203125 -105.877929688 l 1
245.327148438 86.5791015625 m 1
 727.629882812 86.5791015625 l 2
 734.00390625 86.40625 750.166992188 97.076171875 751.454101562 103.216796875 c 0
 752.997070312 111.666992188 755.27734375 111.404296875 754.524414062 125.430664062 c 1
 713.0625 125.595703125 676.595703125 153.318359375 644.021484375 182.4921875 c 0
 601.520507812 220.545898438 554.887695312 273.987304688 502.778320312 310.686523438 c 0
 447.620117188 349.522460938 393.034179688 362.6015625 351.69921875 373.000976562 c 0
EndSplineSet
Fore
SplineSet
245 1 m 1
 245 173 l 1
 579.75 173 l 1
 575.716796875 157 l 1
 565.508102747 166.890348534 554.40599514 177.888972686 543 189.144432519 c 0
 511.15930709 220.564894802 476.950451463 253.986849808 453.198242188 270.887695312 c 0
 413.115234375 299.309570312 372.853515625 309.392578125 331.622070312 319.44921875 c 1
 372.377929688 486.55078125 l 1
 413.146484375 476.607421875 482.884765625 460.690429688 552.801757812 411.112304688 c 0
 616.829101562 365.5546875 665.004882812 308.20703125 700.859375 276.521484375 c 0
 757.538645149 226.713108015 777 238 835.076171875 241 c 1
 840.78125 161.127929688 l 0
 842.676757812 134.592773438 836.383789062 1 708 1 c 0
 245 1 l 1
EndSplineSet
EndChar

StartChar: uni0643.init
Encoding: 65555 -1 47
Width: 1000
VWidth: 34
Flags: HW
LayerCount: 2
Back
SplineSet
776.676757812 739.96875 m 1
 781.32421875 567.998046875 l 1
 762.563476562 566.4375 609.944335938 532.587890625 521.201171875 492.948242188 c 1
 779.452148438 229.163085938 l 0
 813.127929688 194.766601562 822.59765625 150.833007812 814.526367188 106.080078125 c 0
 810.5234375 83.88671875 799.81640625 57.7158203125 777.7421875 36.6435546875 c 0
 751.387695312 11.486328125 715.58203125 1 683 1 c 0
 221 1 l 1
 221 173 l 1
 593.73046875 173 l 1
 376.547851562 394.836914062 l 0
 366.879882812 404.711914062 358.438476562 415.500976562 351.436523438 427.040039062 c 0
 332.9453125 457.5078125 324.274414062 493.651367188 330.43359375 529.844726562 c 0
 336.390625 564.848632812 358.385742188 599.27734375 390.987304688 618.892578125 c 1
 514.188476562 694.255859375 713.250976562 738.25390625 776.676757812 739.96875 c 1
220.776367188 86.7294921875 m 1
 682.98046875 86.955078125 l 2
 743.533203125 87.068359375 736.663085938 153.475585938 717.783203125 169.481445312 c 1
 438.103515625 454.653320312 l 1
 403.49609375 485.453125 409.0625 530.930664062 435.357421875 545.44140625 c 1
 534.03125 606.36328125 741.8046875 653.051757812 779.223632812 653.650390625 c 0
EndSplineSet
Fore
SplineSet
776.676757812 739.96875 m 1
 781.32421875 567.998046875 l 1
 762.563476562 566.4375 588.747070312 527.981445312 500.00390625 483.341796875 c 1
 505.671875 509.329101562 l 1
 779.452148438 229.163085938 l 2
 864.323242188 142.3125 804.225402124 1 683 1 c 2
 221 1 l 1
 221 173 l 1
 614 173 l 1
 605.73046875 161 l 1
 376.547851562 394.836914062 l 2
 315.696289062 456.923828125 310.376643505 570.3919269 390.987304688 618.892578125 c 0
 514.188476562 694.255859375 713.250976562 738.25390625 776.676757812 739.96875 c 1
EndSplineSet
EndChar

StartChar: uni0635.init
Encoding: 65556 -1 48
Width: 1000
VWidth: 34
Flags: HW
LayerCount: 2
Back
SplineSet
434.485351562 423.147460938 m 5
 434.485351562 423.147460938 l 5
398.112304688 103.18359375 m 0
 502.264648438 246.759765625 602.353515625 396.129882812 718.275390625 353.229492188 c 1
 767.932617188 332.633789062 792.877929688 287.17578125 794.48046875 205.176757812 c 1
 797.294921875 137.987304688 l 2
 798.513671875 108.767578125 774.938476562 86.23046875 744.162109375 86.23046875 c 2
 202.66015625 86.23046875 l 1
341.533203125 311.060546875 m 1
 341.231445312 131.666015625 l 1
EndSplineSet
Fore
SplineSet
391.719726562 172 m 17
 475.11328125 287.846679688 601.805664062 506.325195312 799.611328125 433.000976562 c 0
 892.778320312 393.870117188 928.594726562 304.6484375 930.96875 207.331054688 c 0
 932.956054688 140.764648438 l 2
 935.654296875 62.4912109375 870.624023438 0 794 0 c 2
 203 0 l 1
 203 172 l 1
 780 172 l 1
 760 152 l 1
 760.03125 202.668945312 l 0
 758.4453125 267.698242188 744.6953125 269.040039062 736.416992188 272.950195312 c 0
 693.716796875 286.760742188 600 174 526 62 c 9
 391.719726562 172 l 17
255 311 m 1
 427 311 l 1
 427 92 l 1
 255 92 l 1
 255 311 l 1
EndSplineSet
EndChar

StartChar: uni0643_uni0627.isol
Encoding: 65557 -1 49
Width: 1000
VWidth: 34
Flags: HW
LayerCount: 2
Back
SplineSet
685.780273438 736.23828125 m 1
 742.219726562 573.76171875 l 1
 674.614257812 550.278320312 561.400390625 506.725585938 482.034179688 457.265625 c 1
 733.70703125 196.833007812 l 1
 750.501953125 179.33203125 764.897460938 149.799804688 765.615234375 120.409179688 c 0
 766.0546875 102.408203125 762.0390625 84.919921875 754.908203125 69.7412109375 c 0
 732.87109375 22.8271484375 685.364257812 0 640 0 c 0
 335 0 l 2
 257.458054596 0 200 65.8763570429 200 140 c 2
 200 705 l 1
 372 705 l 1
 372 590.924804688 l 1
 476.661132812 660.674804688 608.69921875 709.462890625 685.780273438 736.23828125 c 1
372 323.616210938 m 1
 372 172 l 1
 518.515625 172 l 1
 372 323.616210938 l 1
714.047851562 655.15625 m 0
 618.560546875 622.452148438 437.850585938 552.624023438 353.793945312 465.55078125 c 1
 670.483398438 139.393554688 l 2
 692.306640625 117.5703125 674.186523438 86.3388671875 640.376953125 86.3388671875 c 2
 334.659179688 86.3388671875 l 2
 305.543945312 86.53515625 285.728515625 112.1640625 285.953125 140.263671875 c 2
 287.693359375 704.732421875 l 1
EndSplineSet
Fore
SplineSet
532.515625 157 m 1
 538 172 l 1
 352 172 l 1
 372 152 l 1
 372 705 l 1
 200 705 l 1
 200 140 l 2
 200 65.8763570429 257.458054596 0 335 0 c 2
 640 0 l 2
 740.078785848 -1.22561164751e-14 810.523779766 116.786900698 733.70703125 196.833007812 c 2
 482.034179688 457.265625 l 1
 561.400390625 506.725585938 674.614257812 550.278320312 742.219726562 573.76171875 c 1
 685.780273438 736.23828125 l 1
 568.619144396 695.540407968 418.072265625 639.002929688 298.072265625 536.002929688 c 8
 260.708984375 503.932617188 262.322265625 440.114257812 290.072265625 410.002929688 c 0
 384.072265625 308.002929688 439.936523438 255.801757812 532.515625 157 c 1
EndSplineSet
EndChar

StartChar: uni06D2.fina
Encoding: 65558 -1 50
Width: 1000
VWidth: 34
Flags: HW
LayerCount: 2
Back
SplineSet
803 -103 m 1
 803 -275 l 1
 365 -275 l 0
 241.225585938 -275 143.206054688 -217.018554688 117.354492188 -119.860351562 c 0
 89.4375 -14.94140625 155.755859375 94.265625 266.143554688 123.176757812 c 5
 347.889648438 144.727539062 294.86328125 122.301757812 335.8046875 192.486328125 c 5
 357.88671875 229.984375 388.043945312 259.1640625 423.263671875 277.791015625 c 0
 518.11328125 327.955078125 637.171875 293.850585938 689.212890625 194.845703125 c 5
 701.23046875 171.735351562 698.166015625 173 729 173 c 0
 803 173 l 1
 803 1 l 1
 729 1 l 0
 651.833984375 1 576.76953125 38.2646484375 536.787109375 115.154296875 c 5
 529.23828125 129.516601562 516.884765625 132.731445312 503.676757812 125.74609375 c 4
 498.180664062 122.838867188 491.452148438 117.67578125 484.252929688 105.610351562 c 5
 481.692382812 100.986328125 447.046875 -7.0078125 309.856445312 -43.1767578125 c 5
 285.590820312 -49.53125 281.717773438 -68.669921875 283.571289062 -75.6337890625 c 0
 283.663085938 -75.9794921875 287.50390625 -103 365 -103 c 0
 803 -103 l 1
802.649414062 -188.78125 m 1
 365.291992188 -188.666992188 l 1
 149.583007812 -181.524414062 161.9765625 6.8642578125 288.131835938 39.5361328125 c 0
 398.493164062 68.109375 388.989257812 112.783203125 410.336914062 148.796875 c 0
 463.61328125 238.672851562 572.702148438 232.776367188 613.298828125 155.260742188 c 0
 639.313476562 105.57421875 674.263671875 87.2080078125 728.6171875 87.212890625 c 2
 802.631835938 87.21875 l 1
EndSplineSet
Fore
SplineSet
803 -103 m 1
 803 -275 l 1
 365 -275 l 2
 241.225585938 -275 143.206054688 -217.018554688 117.354492188 -119.860351562 c 0
 89.4375 -14.94140625 160.024581364 99.1636052044 266.143554688 123.176757812 c 0
 308.299000481 132.715911099 316.989105225 158.863220215 335.8046875 192.486328125 c 0
 368.785913254 251.42318675 429.287712872 299.721932139 512.989135742 300.712716903 c 0
 583.704282531 301.549781406 652.833480836 264.055328642 689.212890625 194.845703125 c 0
 701.23046875 171.735351562 718.166015625 173 749 173 c 2
 823 173 l 1
 823 1 l 1
 749 1 l 2
 641.833984375 1 576.76953125 38.2646484375 536.787109375 115.154296875 c 0
 531.050976087 126.067791347 522.540599536 130.544703125 512.989135742 129.000646879 c 0
 499.959969416 126.8943974 493.25174731 120.691793739 484.252929688 105.610351562 c 0
 481.692382812 100.986328125 447.046875 -7.0078125 309.856445312 -43.1767578125 c 0
 285.590820312 -49.53125 281.717773438 -68.669921875 283.571289062 -75.6337890625 c 0
 283.663085938 -75.9794921875 287.50390625 -103 365 -103 c 2
 803 -103 l 1
EndSplineSet
EndChar

StartChar: braceleft
Encoding: 123 123 51
Width: 1000
VWidth: 34
Flags: HW
LayerCount: 2
Back
SplineSet
640.524414062 751.432617188 m 17
 564.099609375 753.651367188 499.596679688 714.721679688 499.596679688 643.995117188 c 2
 499.596679688 391.614257812 l 2
 499.596679688 319.270507812 447.5390625 273.942382812 359.475585938 273.942382812 c 1
 446.24609375 273.942382812 500.166992188 232.786132812 500.166992188 156.780273438 c 2
 500.166992188 -80.5869140625 l 2
 500.166992188 -168.681640625 564.595703125 -203.52734375 640.524414062 -203.52734375 c 9
EndSplineSet
Fore
SplineSet
701 -118 m 1
 701 -290 l 1
 552.264648438 -290 444 -175.864257812 444 -41 c 0
 444 127 l 0
 444 128.11328125 446.326171875 167.576171875 414.533203125 179.047851562 c 0
 399.487304688 184.4765625 379.502929688 188 359 188 c 1
 359 189 358 360 359 360 c 0
 378.759765625 360 398.157226562 363.71875 413.142578125 369.455078125 c 0
 446.1015625 382.073242188 444 422 444 422 c 0
 444 604 l 0
 444 726.215820312 550.208984375 837 701 837 c 1
 701 665 l 1
 635.791015625 665 616 623.784179688 616 604 c 0
 616 392 l 0
 616 346.959960938 597.83203125 305.577148438 572.006835938 275.143554688 c 1
 600.069335938 242.203125 616 202.565429688 616 157 c 0
 616 -41 l 0
 616 -82.1357421875 643.735351562 -118 701 -118 c 1
EndSplineSet
EndChar

StartChar: parenleft
Encoding: 40 40 52
Width: 1000
VWidth: 34
Flags: HW
LayerCount: 2
Back
SplineSet
577.990234375 802.884765625 m 0
 370.065429688 458.404296875 363.467773438 111.68359375 580.161132812 -255.326171875 c 0
EndSplineSet
Fore
SplineSet
654.02734375 -211.228515625 m 1
 505.97265625 -298.771484375 l 1
 274.629882812 92.4853515625 281.655273438 479.100585938 504.407226562 847.498046875 c 1
 651.592773438 758.501953125 l 1
 458.344726562 438.899414062 451.370117188 131.514648438 654.02734375 -211.228515625 c 1
EndSplineSet
EndChar

StartChar: bracketleft
Encoding: 91 91 53
Width: 1000
VWidth: 34
Flags: HW
LayerCount: 2
Back
SplineSet
569.989257812 750.360351562 m 5
 428.977539062 750.360351562 l 5
 428.977539062 -202.360351562 l 5
 571.022460938 -202.360351562 l 5
EndSplineSet
Fore
SplineSet
600 836 m 1
 600 664 l 1
 515 664 l 1
 515 -116 l 1
 601 -116 l 1
 601 -288 l 1
 429 -288 l 2
 392.088867188 -288 343 -254.055664062 343 -202 c 2
 343 750 l 2
 343 786.911132812 376.944335938 836 429 836 c 2
 600 836 l 1
EndSplineSet
EndChar

StartChar: uni064B
Encoding: 1611 1611 54
Width: 0
VWidth: 34
Flags: HW
LayerCount: 2
Back
SplineSet
194.4140625 214.337890625 m 1
 -194.4140625 213.065429688 l 1
194.4140625 63.62109375 m 1
 -194.4140625 62.3486328125 l 1
EndSplineSet
Fore
SplineSet
194 263 m 1
 194 163 l 1
 -194 163 l 1
 -194 263 l 1
 194 263 l 1
193.87109375 113 m 1
 194.12890625 13 l 1
 -193.87109375 12 l 1
 -194.12890625 112 l 1
 193.87109375 113 l 1
EndSplineSet
EndChar

StartChar: uni064E
Encoding: 1614 1614 55
Width: 0
VWidth: 34
Flags: HW
LayerCount: 2
Back
SplineSet
136.787109375 276.287109375 m 1
 -136.787109375 -0.0205078125 l 1
EndSplineSet
Fore
SplineSet
101.516601562 311.2265625 m 1
 172.483398438 240.7734375 l 1
 -101.516601562 -35.2265625 l 1
 -172.483398438 35.2265625 l 1
 101.516601562 311.2265625 l 1
EndSplineSet
EndChar

StartChar: uni064F
Encoding: 1615 1615 56
Width: 0
VWidth: 34
Flags: HW
LayerCount: 2
Back
SplineSet
-51.4501953125 240.337890625 m 0
 -14.1572265625 283.756835938 55.04296875 284.140625 94.0810546875 247.84765625 c 0
 133.0234375 211.442382812 133.166015625 148.443359375 95.6318359375 107.891601562 c 0
 57.89453125 67.53515625 -1.8681640625 64.66796875 -44.046875 97.943359375 c 0
 -86.208984375 131.2109375 -88.78125 196.94140625 -51.4501953125 240.337890625 c 0
-123.5390625 -130.25 m 1
 89.7099609375 102.353515625 l 1
EndSplineSet
Fore
SplineSet
-13.099609375 207.387695312 m 0
 -34.37109375 182.666015625 -28.8408203125 149.676757812 -13.109375 137.315429688 c 0
 9.099609375 119.866210938 39.326171875 121.303710938 59.5361328125 142.212890625 c 1
 79.5400390625 164.178710938 77.3388671875 195.333984375 60.0859375 211.259765625 c 0
 41.5341796875 228.384765625 4.1689453125 227.45703125 -13.099609375 207.387695312 c 0
-88.900390625 272.612304688 m 0
 -32.1689453125 338.54296875 68.4658203125 339.615234375 127.9140625 284.740234375 c 0
 188.8046875 228.533203125 188.26953125 133.999023438 132.461914062 73.7861328125 c 1
 76.0322265625 14.3857421875 -13.2109375 10.220703125 -74.890625 58.6845703125 c 0
 -143.159179688 112.323242188 -141.62890625 211.333984375 -88.900390625 272.612304688 c 0
-87.248046875 -163.900390625 m 1
 -160.751953125 -96.099609375 l 1
 53.248046875 135.900390625 l 1
 126.751953125 68.099609375 l 1
 -87.248046875 -163.900390625 l 1
EndSplineSet
EndChar

StartChar: uni0652
Encoding: 1618 1618 57
Width: 0
VWidth: 34
Flags: HW
LayerCount: 2
Back
SplineSet
-2.8017578125 257.33984375 m 0
 54.373046875 259.770507812 101.907226562 209.473632812 102.06640625 156.159179688 c 0
 102.06640625 102.845703125 56.15625 59.7197265625 0.900390625 59.44140625 c 0
 -54.3623046875 59.44140625 -97.26171875 101.137695312 -101.76171875 154.676757812 c 0
 -106.26953125 208.202148438 -59.9990234375 254.961914062 -2.8017578125 257.33984375 c 0
EndSplineSet
Fore
SplineSet
-1.2470703125 207.030273438 m 0
 -34.294921875 205.87109375 -54.13671875 180.389648438 -52.1708984375 159.15234375 c 1
 -50 129.848632812 -27.55859375 109 1 109 c 0
 29.9375 109 52 132.630859375 52 156 c 0
 52 180.756835938 25.876953125 207.982421875 -1.2470703125 207.030273438 c 0
-4.7529296875 306.969726562 m 0
 82.123046875 310.017578125 152 237.243164062 152 156 c 0
 152 73.369140625 82.0625 9 1 9 c 0
 -80.9794921875 9 -145.23046875 71.015625 -151.947265625 152.25390625 c 1
 -159.028320312 238.368164062 -85.2900390625 304.143554688 -4.7529296875 306.969726562 c 0
EndSplineSet
EndChar

StartChar: uni064F.alt
Encoding: 65559 -1 58
Width: 0
VWidth: 34
Flags: HW
LayerCount: 2
Back
SplineSet
107.534179688 266.669921875 m 0
 164.716796875 269.092773438 212.244140625 218.803710938 212.401367188 165.489257812 c 0
 212.401367188 112.182617188 166.484375 69.0498046875 111.237304688 68.771484375 c 0
 55.982421875 68.771484375 13.0732421875 110.467773438 8.5751953125 164.006835938 c 0
 4.0673828125 217.532226562 50.337890625 264.291992188 107.534179688 266.669921875 c 0
-212.401367188 66.228515625 m 1
 103.140625 69.3212890625 l 1
EndSplineSet
Fore
SplineSet
109.752929688 217.030273438 m 0
 77.37890625 215.89453125 56.8212890625 189.834960938 58.8291015625 168.15234375 c 1
 61.0126953125 138.680664062 82.201171875 119 111 119 c 0
 140.631835938 119 162 142.1171875 162 165 c 0
 162 190.89453125 135.778320312 217.944335938 109.752929688 217.030273438 c 0
106.247070312 316.969726562 m 0
 194.221679688 320.055664062 262 245.10546875 262 165 c 0
 262 81.8828125 191.368164062 19 111 19 c 0
 29.248046875 19 -34.1923828125 79.412109375 -41.0234375 162.177734375 c 1
 -47.931640625 246.149414062 25.021484375 314.119140625 106.247070312 316.969726562 c 0
-211.5234375 16.001953125 m 1
 -212.4765625 115.998046875 l 1
 102.5234375 118.998046875 l 1
 103.4765625 19.001953125 l 1
 -211.5234375 16.001953125 l 1
EndSplineSet
EndChar

StartChar: uni06A1.fina
Encoding: 65560 -1 59
Width: 1000
VWidth: 34
Flags: HW
LayerCount: 2
Back
SplineSet
798 173 m 1
 934 173 l 1
 934 1 l 1
 798 1 l 1
 798 -59 l 0
 798 -94.583984375 784.657226562 -128.653320312 759.965820312 -154.969726562 c 0
 734.962890625 -181.618164062 697.520507812 -199 657 -199 c 0
 165 -199 l 0
 110.616210938 -199 55.1650390625 -177.983398438 18.6279296875 -132.58203125 c 0
 -6.962890625 -100.783203125 -20 -60.2978515625 -20 -19 c 0
 -20 133 l 1
 152 133 l 1
 152 -19 l 0
 152 -22.4970703125 152.509765625 -24.1640625 152.6875 -24.6953125 c 1
 153.510742188 -25.1845703125 157.129882812 -27 165 -27 c 0
 626 -27 l 1
 626 0.345703125 l 1
 554.311523438 -1.0068359375 444.56640625 0.0234375 380.395507812 106.520507812 c 1
 310.895507812 221.196289062 369 350.469726562 451.3359375 404.240234375 c 1
 541.405273438 461.784179688 692.708984375 457.412109375 765.862304688 341.569335938 c 0
 786.8671875 308.306640625 798 267.8203125 798 225 c 0
 798 173 l 1
626 172.377929688 m 1
 626 225 l 0
 626 238.96484375 623.108398438 245.361328125 620.627929688 249.416992188 c 0
 611.994140625 263.532226562 567.840820312 273.973632812 544.692382812 259.7734375 c 1
 527.638671875 247.90625 517.3828125 212.344726562 527.604492188 195.479492188 c 1
 541.771484375 171.967773438 542.962890625 170.756835938 626 172.377929688 c 1
66 133 m 1
 66 -19 l 2
 66 -77 108 -113 165 -113 c 2
 657 -113 l 2
 691 -113 712 -86 712 -59 c 2
 712 225 l 2
 712 353 570 378 498 332 c 0
 449 300 414 217 454 151 c 0
 501 73 571 87 672 87 c 2
 934 87 l 1
EndSplineSet
Fore
SplineSet
934 171 m 1
 934 0 l 1
 636 0 l 2
 545 0 444 0 380 106 c 0
 310 221 369 349 451 403 c 0
 541 461 693 457 766 341 c 0
 787 308 798 267 798 224 c 0
 798 -60 l 2
 798 -137 735 -200 657 -200 c 2
 165 -200 l 2
 68 -200 -20 -127 -20 -20 c 2
 -20 132 l 1
 152 132 l 1
 152 -48 l 1
 132 -28 l 1
 646 -28 l 1
 626 -48 l 1
 626 214 l 0
 626 246 611 260 592 266 c 0
 572 273 550 266 537 252 c 0
 520 233 519 209 528 194 c 0
 542 170 549 170 636 171 c 2
 934 171 l 1
EndSplineSet
EndChar

StartChar: uni066F
Encoding: 1647 1647 60
Width: 1000
VWidth: 34
Flags: HW
LayerCount: 2
Back
SplineSet
626 0.345703125 m 5
 554.311523438 -1.0068359375 444.56640625 0.0234375 380.395507812 106.520507812 c 0
 310.895507812 221.196289062 369 350.469726562 451.3359375 404.240234375 c 0
 541.405273438 461.784179688 692.708984375 457.412109375 765.862304688 341.569335938 c 0
 786.8671875 308.306640625 798 267.8203125 798 225 c 0
 798 -59 l 2
 798 -136.159557238 734.905894831 -199 657 -199 c 2
 235 -199 l 2
 137.689454526 -199 50 -126.035246758 50 -19 c 2
 50 223 l 1
 222 223 l 1
 222 -47 l 1
 202 -27 l 1
 646 -27 l 1
 626 -47 l 1
 626 225 l 2
 626 238.96484375 623.108398438 245.361328125 620.627929688 249.416992188 c 0
 611.994140625 263.532226562 567.840820312 273.973632812 544.692382812 259.7734375 c 0
 527.638671875 247.90625 517.3828125 212.344726562 527.604492188 195.479492188 c 0
 541.771484375 171.967773438 542.962890625 170.756835938 626 172.377929688 c 5
66 133 m 1
 66 -19 l 2
 66 -77 108 -113 165 -113 c 2
 657 -113 l 2
 691 -113 712 -86 712 -59 c 2
 712 225 l 2
 712 353 570 378 498 332 c 0
 449 300 414 217 454 151 c 0
 501 73 571 87 672 87 c 2
EndSplineSet
Fore
SplineSet
666 21.345703125 m 1
 566.311523438 15.9931640625 444.56640625 0.0234375 380.395507812 106.520507812 c 0
 310.895507812 221.196289062 369 350.469726562 451.3359375 404.240234375 c 0
 541.405273438 461.784179688 692.708984375 457.412109375 765.862304688 341.569335938 c 0
 786.8671875 308.306640625 798 267.8203125 798 225 c 0
 798 -59 l 2
 798 -136.159557238 734.905894831 -199 657 -199 c 2
 235 -199 l 2
 137.689454526 -199 50 -126.035246758 50 -19 c 2
 50 223 l 1
 222 223 l 1
 222 -47 l 1
 202 -27 l 1
 646 -27 l 1
 626 -47 l 1
 626 215 l 0
 626 247.245117188 610.959550464 260.616123306 592 267.042479906 c 0
 572.057247042 273.802093871 550.148509872 266.861378029 536.888941798 252.700927734 c 0
 519.562265756 234.197041824 518.583637648 210.363428167 527.604492188 195.479492188 c 0
 541.771484375 171.967773438 558.962890625 147.756835938 666 158.377929688 c 1
 666 21.345703125 l 1
EndSplineSet
EndChar

StartChar: uni066F.fina
Encoding: 65561 -1 61
Width: 1000
VWidth: 34
Flags: HW
LayerCount: 2
Back
SplineSet
798 173 m 1
 934 173 l 1
 934 1 l 1
 798 1 l 1
 798 -59 l 0
 798 -93.873046875 785.182617188 -127.25 761.46875 -153.342773438 c 0
 736.451171875 -180.869140625 698.391601562 -199 657 -199 c 0
 235 -199 l 0
 180.616210938 -199 125.165039062 -177.983398438 88.6279296875 -132.58203125 c 0
 63.037109375 -100.783203125 50 -60.2978515625 50 -19 c 0
 50 223 l 1
 222 223 l 1
 222 -19 l 0
 222 -22.4970703125 222.509765625 -24.1640625 222.6875 -24.6953125 c 1
 223.510742188 -25.1845703125 227.129882812 -27 235 -27 c 0
 626 -27 l 1
 626 0.345703125 l 1
 554.311523438 -1.0068359375 444.56640625 0.0234375 380.395507812 106.520507812 c 1
 310.895507812 221.196289062 369 350.469726562 451.3359375 404.240234375 c 1
 541.405273438 461.784179688 692.708984375 457.412109375 765.862304688 341.569335938 c 0
 786.8671875 308.306640625 798 267.8203125 798 225 c 0
 798 173 l 1
626 172.377929688 m 1
 626 225 l 0
 626 238.96484375 623.108398438 245.361328125 620.627929688 249.416992188 c 0
 611.994140625 263.532226562 567.840820312 273.973632812 544.692382812 259.7734375 c 1
 527.638671875 247.90625 517.3828125 212.344726562 527.604492188 195.479492188 c 1
 541.771484375 171.967773438 542.962890625 170.756835938 626 172.377929688 c 1
136 223 m 1
 136 -19 l 2
 136 -77 178 -113 235 -113 c 2
 657 -113 l 2
 691 -113 712 -86 712 -59 c 2
 712 225 l 2
 712 353 570 378 498 332 c 0
 449 300 414 217 454 151 c 0
 501 73 571 87 672 87 c 2
 934 87 l 1
EndSplineSet
Fore
SplineSet
934 171 m 1
 934 0 l 1
 636 0 l 2
 545 0 444 0 380 106 c 0
 310 221 369 349 451 403 c 0
 541 461 693 457 766 341 c 0
 787 308 798 267 798 224 c 0
 798 -60 l 2
 798 -137 735 -200 657 -200 c 2
 235 -200 l 2
 138 -200 50 -127 50 -20 c 2
 50 222 l 1
 222 222 l 1
 222 -48 l 1
 202 -28 l 1
 646 -28 l 1
 626 -48 l 1
 626 214 l 0
 626 246 611 260 592 266 c 0
 572 273 550 266 537 252 c 0
 520 233 519 209 528 194 c 0
 542 170 549 170 636 171 c 2
 934 171 l 1
EndSplineSet
EndChar

StartChar: uni066F.init
Encoding: 65562 -1 62
Width: 1000
VWidth: 34
Flags: HW
LayerCount: 2
Back
SplineSet
626 200.345703125 m 1
 554.311523438 198.993164062 444.56640625 200.0234375 380.395507812 306.520507812 c 1
 310.895507812 421.196289062 369 550.469726562 451.3359375 604.240234375 c 1
 541.405273438 661.784179688 692.708984375 657.412109375 765.862304688 541.569335938 c 0
 786.8671875 508.306640625 798 467.8203125 798 425 c 0
 798 141 l 0
 798 105.416015625 784.657226562 71.3466796875 759.965820312 45.0302734375 c 0
 734.962890625 18.3818359375 697.520507812 1 657 1 c 0
 305 1 l 1
 305 173 l 1
 626 173 l 1
 626 200.345703125 l 1
626 372.377929688 m 1
 626 425 l 0
 626 438.96484375 623.108398438 445.361328125 620.627929688 449.416992188 c 0
 611.994140625 463.532226562 567.840820312 473.973632812 544.692382812 459.7734375 c 1
 527.638671875 447.90625 517.3828125 412.344726562 527.604492188 395.479492188 c 1
 541.771484375 371.967773438 542.962890625 370.756835938 626 372.377929688 c 1
672 87 m 6
 934 87 l 5
EndSplineSet
Fore
SplineSet
305 172 m 1
 646 172 l 1
 626 152 l 1
 626 414 l 0
 626 446.245117188 610.959960938 459.616210938 592 466.041992188 c 0
 572.057617188 472.801757812 550.1484375 465.861328125 536.888671875 451.701171875 c 0
 519.5625 433.197265625 518.583984375 409.36328125 527.604492188 394.479492188 c 0
 541.771484375 370.967773438 558.962890625 346.756835938 666 357.377929688 c 1
 666 220.345703125 l 1
 566.311523438 214.993164062 444.56640625 199.0234375 380.395507812 305.520507812 c 0
 310.895507812 420.196289062 369 549.469726562 451.3359375 603.240234375 c 0
 541.405273438 660.784179688 692.708984375 656.412109375 765.862304688 540.569335938 c 0
 786.8671875 507.306640625 798 466.8203125 798 424 c 0
 798 140 l 2
 798 62.8408203125 734.90625 0 657 0 c 2
 305 0 l 17
 305 172 l 1
EndSplineSet
EndChar

